<?xml version="1.0" encoding="utf-8"?>
<!-- Generator: Adobe Illustrator 24.3.0, SVG Export Plug-In . SVG Version: 6.00 Build 0)  -->
<svg version="1.1" id="Livello_1" xmlns="http://www.w3.org/2000/svg" xmlns:xlink="http://www.w3.org/1999/xlink" x="0px" y="0px"
	 viewBox="0 0 850.39 850.39" style="enable-background:new 0 0 850.39 850.39;" xml:space="preserve">
<style type="text/css">
	.Arco_x0020_verde{fill:url(#SVGID_1_);stroke:#FFFFFF;stroke-width:0.25;stroke-miterlimit:1;}
	.st0{fill:#F6A800;}
	.st1{fill:#EE7F00;}
	.st2{fill:#A87C4F;}
	.st3{fill:#8A5D3B;}
	.st4{fill:#603813;}
	.st5{fill:#754C28;}
	.st6{fill:url(#SVGID_2_);}
	.st7{fill:url(#SVGID_3_);}
	.st8{fill:url(#SVGID_4_);}
	.st9{fill:url(#SVGID_5_);}
	.st10{fill:url(#SVGID_6_);}
	.st11{fill:url(#SVGID_7_);}
	.st12{fill:url(#SVGID_8_);}
	.st13{fill:url(#SVGID_9_);}
	.st14{fill:url(#SVGID_10_);}
	.st15{fill:url(#SVGID_11_);}
	.st16{fill:url(#SVGID_12_);}
	.st17{fill:url(#SVGID_13_);}
	.st18{fill:url(#SVGID_14_);}
	.st19{fill:url(#SVGID_15_);}
	.st20{fill:url(#SVGID_16_);}
	.st21{fill:url(#SVGID_17_);}
	.st22{fill:url(#SVGID_18_);}
	.st23{fill:url(#SVGID_19_);}
	.st24{fill:#C90019;}
	.st25{fill:#940E15;}
	.st26{fill:#FBC976;}
	.st27{fill:#FEEBD2;}
	.st28{fill:#FABD43;}
	.st29{fill:#FEDFA8;}
</style>
<linearGradient id="SVGID_1_" gradientUnits="userSpaceOnUse" x1="0" y1="850.3896" x2="0.7071" y2="849.6825">
	<stop  offset="0" style="stop-color:#1EAB4B"/>
	<stop  offset="0.9831" style="stop-color:#19361A"/>
</linearGradient>
<path class="st0" d="M265.97,476.38c-40.45-21.93-34.86-67.91-53.29-92.14c3.3-4.41,19.5-3.1,23.94,5.45
	c18.63,31.19,9.63,53.68,46.29,81.07c-26.15-23.38-23.24-58.83-40.46-81.48c3.08-4.12,18.23-2.9,22.38,5.09
	c17.42,29.16,11.73,55.51,46,81.11c-24.01-21.28-22.08-53.49-38.05-73.91c2.67-3.58,16.31-2.15,20.21,5.01
	c16.3,26.19,15.12,56.85,46.47,80.27C322.29,493.14,295.67,489.65,265.97,476.38z"/>
<path class="st1" d="M580.09,472.32c40.16-22.46,33.97-68.37,52.07-92.83c-3.35-4.37-19.54-2.84-23.87,5.76
	c-18.22,31.43-8.93,53.8-45.22,81.67c25.84-23.73,22.46-59.14,39.38-82.01c-3.13-4.08-18.27-2.66-22.31,5.38
	c-17.03,29.39-11,55.66-44.93,81.71c23.73-21.59,21.37-53.78,37.08-74.41c-2.72-3.54-16.34-1.94-20.15,5.28
	c-15.95,26.4-14.37,57.04-45.41,80.88C523.99,489.82,550.56,485.98,580.09,472.32z"/>
<rect x="399.05" y="66.88" class="st2" width="11.82" height="89.28"/>
<rect x="429.25" y="81.62" class="st3" width="17.07" height="74.53"/>
<polygon class="st2" points="410.87,156.16 399.05,156.16 305.18,156.16 305.18,160.75 399.05,160.75 410.87,160.75 416.45,160.75 
	416.45,156.16 "/>
<polygon class="st4" points="416.45,102.84 416.45,156.16 416.45,160.75 416.45,167.32 422.35,167.32 422.35,160.75 422.35,156.16 
	422.35,102.84 "/>
<polygon class="st2" points="446.99,156.16 429.44,156.16 422.35,156.16 422.35,160.75 429.44,160.75 446.99,160.75 528.64,160.75 
	528.64,156.16 "/>
<rect x="321.59" y="167.32" class="st3" width="77.46" height="12.47"/>
<rect x="446.32" y="167.32" class="st3" width="95.19" height="12.47"/>
<polygon class="st2" points="399.05,160.75 399.05,167.32 399.05,179.79 399.05,188.32 410.87,188.32 410.87,179.79 410.87,167.32 
	410.87,160.75 "/>
<polygon class="st3" points="422.35,167.32 416.45,167.32 410.87,167.32 410.87,179.79 416.45,179.79 422.35,179.79 429.25,179.79 
	429.25,167.32 "/>
<polygon class="st3" points="429.25,160.75 429.25,167.32 429.25,179.79 429.25,188.32 446.32,188.32 446.32,179.79 446.32,167.32 
	446.32,160.75 "/>
<polygon class="st5" points="410.6,188.32 398.21,188.32 290.86,188.32 290.86,195.55 398.21,195.55 410.6,195.55 416.45,195.55 
	416.45,188.32 "/>
<polygon class="st5" points="446.32,188.32 429.25,188.32 422.35,188.32 422.35,195.55 429.25,195.55 446.32,195.55 502.77,195.55 
	502.77,188.32 "/>
<linearGradient id="SVGID_2_" gradientUnits="userSpaceOnUse" x1="404.9587" y1="151.8732" x2="404.9587" y2="167.8278">
	<stop  offset="0.0869" style="stop-color:#FFFFFF"/>
	<stop  offset="0.4187" style="stop-color:#AFAEAF"/>
	<stop  offset="1" style="stop-color:#1A171B"/>
</linearGradient>
<rect x="399.05" y="66.88" class="st6" width="11.82" height="89.28"/>
<linearGradient id="SVGID_3_" gradientUnits="userSpaceOnUse" x1="437.782" y1="151.3005" x2="437.782" y2="164.9494">
	<stop  offset="0" style="stop-color:#FFFFFF"/>
	<stop  offset="0.0918" style="stop-color:#F5F5F5"/>
	<stop  offset="0.2497" style="stop-color:#DAD9DA"/>
	<stop  offset="0.4545" style="stop-color:#ADACAE"/>
	<stop  offset="0.6984" style="stop-color:#706E70"/>
	<stop  offset="0.9726" style="stop-color:#221F23"/>
	<stop  offset="1" style="stop-color:#1A171B"/>
</linearGradient>
<rect x="429.25" y="81.62" class="st7" width="17.07" height="74.53"/>
<linearGradient id="SVGID_4_" gradientUnits="userSpaceOnUse" x1="405.5092" y1="158.4551" x2="420.8116" y2="158.4551">
	<stop  offset="0" style="stop-color:#FFFFFF"/>
	<stop  offset="0.0918" style="stop-color:#F5F5F5"/>
	<stop  offset="0.2497" style="stop-color:#DAD9DA"/>
	<stop  offset="0.4545" style="stop-color:#ADACAE"/>
	<stop  offset="0.6984" style="stop-color:#706E70"/>
	<stop  offset="0.9726" style="stop-color:#221F23"/>
	<stop  offset="1" style="stop-color:#1A171B"/>
</linearGradient>
<polygon class="st8" points="410.87,156.16 399.05,156.16 305.18,156.16 305.18,160.75 399.05,160.75 410.87,160.75 416.45,160.75 
	416.45,156.16 "/>
<linearGradient id="SVGID_5_" gradientUnits="userSpaceOnUse" x1="419.4009" y1="161.2981" x2="419.4009" y2="175.5396">
	<stop  offset="0.0869" style="stop-color:#FFFFFF"/>
	<stop  offset="0.4187" style="stop-color:#AFAEAF"/>
	<stop  offset="1" style="stop-color:#1A171B"/>
</linearGradient>
<polygon class="st9" points="416.45,102.84 416.45,156.16 416.45,160.75 416.45,167.32 422.35,167.32 422.35,160.75 422.35,156.16 
	422.35,102.84 "/>
<linearGradient id="SVGID_6_" gradientUnits="userSpaceOnUse" x1="435.5436" y1="158.4551" x2="413.5648" y2="158.4551">
	<stop  offset="0" style="stop-color:#FFFFFF"/>
	<stop  offset="0.0918" style="stop-color:#F5F5F5"/>
	<stop  offset="0.2497" style="stop-color:#DAD9DA"/>
	<stop  offset="0.4545" style="stop-color:#ADACAE"/>
	<stop  offset="0.6984" style="stop-color:#706E70"/>
	<stop  offset="0.9726" style="stop-color:#221F23"/>
	<stop  offset="1" style="stop-color:#1A171B"/>
</linearGradient>
<polygon class="st10" points="446.99,156.16 429.44,156.16 422.35,156.16 422.35,160.75 429.44,160.75 446.99,160.75 528.64,160.75 
	528.64,156.16 "/>
<linearGradient id="SVGID_7_" gradientUnits="userSpaceOnUse" x1="382.8375" y1="173.5536" x2="406.0632" y2="173.5536">
	<stop  offset="0" style="stop-color:#FFFFFF"/>
	<stop  offset="0.0918" style="stop-color:#F5F5F5"/>
	<stop  offset="0.2497" style="stop-color:#DAD9DA"/>
	<stop  offset="0.4545" style="stop-color:#ADACAE"/>
	<stop  offset="0.6984" style="stop-color:#706E70"/>
	<stop  offset="0.9726" style="stop-color:#221F23"/>
	<stop  offset="1" style="stop-color:#1A171B"/>
</linearGradient>
<rect x="321.59" y="167.32" class="st11" width="77.46" height="12.47"/>
<linearGradient id="SVGID_8_" gradientUnits="userSpaceOnUse" x1="458.041" y1="173.5536" x2="438.2971" y2="173.5536">
	<stop  offset="0" style="stop-color:#FFFFFF"/>
	<stop  offset="0.0918" style="stop-color:#F5F5F5"/>
	<stop  offset="0.2497" style="stop-color:#DAD9DA"/>
	<stop  offset="0.4545" style="stop-color:#ADACAE"/>
	<stop  offset="0.6984" style="stop-color:#706E70"/>
	<stop  offset="0.9726" style="stop-color:#221F23"/>
	<stop  offset="1" style="stop-color:#1A171B"/>
</linearGradient>
<rect x="446.32" y="167.32" class="st12" width="95.19" height="12.47"/>
<linearGradient id="SVGID_9_" gradientUnits="userSpaceOnUse" x1="404.9587" y1="181.5275" x2="404.9587" y2="199.7321">
	<stop  offset="0.0869" style="stop-color:#FFFFFF"/>
	<stop  offset="0.4187" style="stop-color:#AFAEAF"/>
	<stop  offset="1" style="stop-color:#1A171B"/>
</linearGradient>
<polygon class="st13" points="399.05,160.75 399.05,167.32 399.05,179.79 399.05,188.32 410.87,188.32 410.87,179.79 410.87,167.32 
	410.87,160.75 "/>
<linearGradient id="SVGID_10_" gradientUnits="userSpaceOnUse" x1="404.9587" y1="176.6891" x2="404.9587" y2="155.3488">
	<stop  offset="0.0869" style="stop-color:#FFFFFF"/>
	<stop  offset="0.4187" style="stop-color:#AFAEAF"/>
	<stop  offset="1" style="stop-color:#1A171B"/>
</linearGradient>
<polygon class="st14" points="399.05,160.75 399.05,167.32 399.05,179.79 399.05,188.32 410.87,188.32 410.87,179.79 410.87,167.32 
	410.87,160.75 "/>
<linearGradient id="SVGID_11_" gradientUnits="userSpaceOnUse" x1="423.2166" y1="173.5536" x2="437.5938" y2="173.5536">
	<stop  offset="0" style="stop-color:#FFFFFF"/>
	<stop  offset="0.0729" style="stop-color:#F5F5F5"/>
	<stop  offset="0.1982" style="stop-color:#DAD9DA"/>
	<stop  offset="0.3608" style="stop-color:#ADACAE"/>
	<stop  offset="0.5545" style="stop-color:#706E70"/>
	<stop  offset="0.7722" style="stop-color:#221F23"/>
	<stop  offset="0.794" style="stop-color:#1A171B"/>
</linearGradient>
<polygon class="st15" points="422.35,167.32 416.45,167.32 410.87,167.32 410.87,179.79 416.45,179.79 422.35,179.79 429.25,179.79 
	429.25,167.32 "/>
<linearGradient id="SVGID_12_" gradientUnits="userSpaceOnUse" x1="416.9983" y1="173.4924" x2="407.7821" y2="173.3081">
	<stop  offset="0" style="stop-color:#FFFFFF"/>
	<stop  offset="0.0918" style="stop-color:#F5F5F5"/>
	<stop  offset="0.2497" style="stop-color:#DAD9DA"/>
	<stop  offset="0.4545" style="stop-color:#ADACAE"/>
	<stop  offset="0.6984" style="stop-color:#706E70"/>
	<stop  offset="0.9726" style="stop-color:#221F23"/>
	<stop  offset="1" style="stop-color:#1A171B"/>
</linearGradient>
<polygon class="st16" points="422.35,167.32 416.45,167.32 410.87,167.32 410.87,179.79 416.45,179.79 422.35,179.79 429.25,179.79 
	429.25,167.32 "/>
<linearGradient id="SVGID_13_" gradientUnits="userSpaceOnUse" x1="437.782" y1="181.7579" x2="437.782" y2="201.274">
	<stop  offset="0" style="stop-color:#FFFFFF"/>
	<stop  offset="0.0918" style="stop-color:#F5F5F5"/>
	<stop  offset="0.2497" style="stop-color:#DAD9DA"/>
	<stop  offset="0.4545" style="stop-color:#ADACAE"/>
	<stop  offset="0.6984" style="stop-color:#706E70"/>
	<stop  offset="0.9726" style="stop-color:#221F23"/>
	<stop  offset="1" style="stop-color:#1A171B"/>
</linearGradient>
<polygon class="st17" points="429.25,160.75 429.25,167.32 429.25,179.79 429.25,188.32 446.32,188.32 446.32,179.79 446.32,167.32 
	446.32,160.75 "/>
<linearGradient id="SVGID_14_" gradientUnits="userSpaceOnUse" x1="437.782" y1="169.3162" x2="437.782" y2="154.8966">
	<stop  offset="0" style="stop-color:#FFFFFF"/>
	<stop  offset="0.0918" style="stop-color:#F5F5F5"/>
	<stop  offset="0.2497" style="stop-color:#DAD9DA"/>
	<stop  offset="0.4545" style="stop-color:#ADACAE"/>
	<stop  offset="0.6984" style="stop-color:#706E70"/>
	<stop  offset="0.9726" style="stop-color:#221F23"/>
	<stop  offset="1" style="stop-color:#1A171B"/>
</linearGradient>
<polygon class="st18" points="429.25,160.75 429.25,167.32 429.25,179.79 429.25,188.32 446.32,188.32 446.32,179.79 446.32,167.32 
	446.32,160.75 "/>
<linearGradient id="SVGID_15_" gradientUnits="userSpaceOnUse" x1="405.3678" y1="191.9347" x2="421.0768" y2="191.9347">
	<stop  offset="0" style="stop-color:#FFFFFF"/>
	<stop  offset="0.0918" style="stop-color:#F5F5F5"/>
	<stop  offset="0.2497" style="stop-color:#DAD9DA"/>
	<stop  offset="0.4545" style="stop-color:#ADACAE"/>
	<stop  offset="0.6984" style="stop-color:#706E70"/>
	<stop  offset="0.9726" style="stop-color:#221F23"/>
	<stop  offset="1" style="stop-color:#1A171B"/>
</linearGradient>
<polygon class="st19" points="410.6,188.32 398.21,188.32 290.86,188.32 290.86,195.55 398.21,195.55 410.6,195.55 416.45,195.55 
	416.45,188.32 "/>
<linearGradient id="SVGID_16_" gradientUnits="userSpaceOnUse" x1="431.4986" y1="191.9347" x2="417.1167" y2="191.9347">
	<stop  offset="0" style="stop-color:#FFFFFF"/>
	<stop  offset="0.0918" style="stop-color:#F5F5F5"/>
	<stop  offset="0.2497" style="stop-color:#DAD9DA"/>
	<stop  offset="0.4545" style="stop-color:#ADACAE"/>
	<stop  offset="0.6984" style="stop-color:#706E70"/>
	<stop  offset="0.9726" style="stop-color:#221F23"/>
	<stop  offset="1" style="stop-color:#1A171B"/>
</linearGradient>
<polygon class="st20" points="446.32,188.32 429.25,188.32 422.35,188.32 422.35,195.55 429.25,195.55 446.32,195.55 502.77,195.55 
	502.77,188.32 "/>
<path class="st2" d="M410.87,285.31v-89.77h-11.82v77.75C403.5,277.62,407.49,281.73,410.87,285.31z"/>
<linearGradient id="SVGID_17_" gradientUnits="userSpaceOnUse" x1="404.9587" y1="206.6146" x2="404.9587" y2="192.5396">
	<stop  offset="0.2273" style="stop-color:#FFFFFF"/>
	<stop  offset="0.3111" style="stop-color:#EEEEEE"/>
	<stop  offset="0.4778" style="stop-color:#C2C1C2"/>
	<stop  offset="0.7116" style="stop-color:#7B797B"/>
	<stop  offset="1" style="stop-color:#1A171B"/>
</linearGradient>
<path class="st21" d="M410.87,285.31v-89.77h-11.82v77.75C403.5,277.62,407.49,281.73,410.87,285.31z"/>
<path class="st4" d="M422.35,298.15V195.87v-7.37v-8.71h-5.91v8.71v7.37v95.51C420.19,295.55,422.35,298.15,422.35,298.15z"/>
<linearGradient id="SVGID_18_" gradientUnits="userSpaceOnUse" x1="419.4008" y1="185.4343" x2="419.4008" y2="178.3179">
	<stop  offset="0.2273" style="stop-color:#FFFFFF"/>
	<stop  offset="0.3111" style="stop-color:#EEEEEE"/>
	<stop  offset="0.4778" style="stop-color:#C2C1C2"/>
	<stop  offset="0.7116" style="stop-color:#7B797B"/>
	<stop  offset="1" style="stop-color:#1A171B"/>
</linearGradient>
<path class="st22" d="M422.35,298.15V195.87v-7.37v-8.71h-5.91v8.71v7.37v95.51C420.19,295.55,422.35,298.15,422.35,298.15z"/>
<path class="st3" d="M446.32,275.05v-79.51h-17.07v93.56C433.72,284.52,439.64,279.77,446.32,275.05z"/>
<linearGradient id="SVGID_19_" gradientUnits="userSpaceOnUse" x1="437.782" y1="204.5156" x2="437.782" y2="193.5093">
	<stop  offset="0.2273" style="stop-color:#FFFFFF"/>
	<stop  offset="0.3111" style="stop-color:#EEEEEE"/>
	<stop  offset="0.4778" style="stop-color:#C2C1C2"/>
	<stop  offset="0.7116" style="stop-color:#7B797B"/>
	<stop  offset="1" style="stop-color:#1A171B"/>
</linearGradient>
<path class="st23" d="M446.32,275.05v-79.51h-17.07v93.56C433.72,284.52,439.64,279.77,446.32,275.05z"/>
<path class="st24" d="M416.18,543.15c0,0-62.02-62.99-149.66-85.91l-25.62-195.5c0,0,134.83,17.53,175.27,94.38V543.15z"/>
<path class="st25" d="M427.23,528.38c0,0,55.02-59,164.22-84.62l17.92-187.4c0,0-182.14,43.14-182.14,98.42
	C427.23,420.85,427.23,528.38,427.23,528.38z"/>
<path class="st26" d="M416.18,348.49c0,0-40.45-62.24-136.17-86.74v-31.01c0,0,119.08,52.54,136.17,94.38V348.49z"/>
<path class="st27" d="M303.83,237.48c0,0,88.98,41.8,112.35,80.9v-11.68c0,0-33.71-52.36-112.35-88.09V237.48z"/>
<path class="st28" d="M427.22,341.3c0,0,20.1-52.35,166.93-84.93v-16.64c0,0-168.16,37.3-166.92,72.36L427.22,341.3z"/>
<path class="st29" d="M427.23,298.15c0,0,11.2-16.18,111.6-49.39c16.22-5.36,13.16-38.27,10.83-33.76
	c-2.33,4.51,13.48,15.73-83.59,56.18C438.15,282.82,427.23,298.15,427.23,298.15z"/>
<path class="st0" d="M264.35,506.85c60.13,29.69,106.79,36.91,101,100.64c133.58-98.41-23.75-173.6-14.96-202.49
	c-29.74,22.1-5.67,38.46,5.42,55.48c27.24,53.1-108.71,49.48-144.5-43.95c-2.29-7.46-15.75-25.98-29.99-18.79
	C201.73,428.35,204.95,473.91,264.35,506.85z"/>
<path class="st1" d="M581.21,502.76c-59.73,30.48-106.29,38.31-99.66,101.96c-134.86-96.64,21.46-173.89,12.3-202.67
	c30.03,21.71,6.18,38.39-4.69,55.54c-26.54,53.46,109.35,48.05,143.91-45.84c2.19-7.49,15.41-26.18,29.74-19.18
	C642.79,423.45,640.18,469.04,581.21,502.76z"/>
<g>
	<path class="st25" d="M226.56,716.72c0,0.49-0.16,0.73-0.49,0.73h-36.84c-0.49,0-0.73-0.2-0.73-0.61v-2.74
		c0-0.45,0.32-0.67,0.97-0.67h9.24c0.77,0,1.24-0.2,1.4-0.61c0.16-0.4,0.26-1.68,0.3-3.83c0.08-4.42,0.12-15.26,0.12-32.52
		c0-0.73-0.36-1.09-1.09-1.09h-37.27c-0.73,0-1.09,0.45-1.09,1.34c0,12.97,0.04,20.95,0.12,23.95c0.24,8.51,1.2,12.77,2.86,12.77
		h10.7c0.36,0,0.55,0.26,0.55,0.79v2.61c0,0.41-0.18,0.61-0.55,0.61h-36.84c-0.36,0-0.58-0.06-0.64-0.18
		c-0.06-0.12-0.09-0.26-0.09-0.42v-2.61c0-0.53,0.24-0.79,0.73-0.79h7.96c1.01,0,1.62-0.21,1.82-0.64c0.2-0.43,0.3-1.69,0.3-3.8
		c0-0.69-0.04-6.09-0.12-16.2c-0.08-10.11-0.12-15.72-0.12-16.84c0-1.11-0.04-5.49-0.12-13.13c-0.08-7.64-0.12-11.72-0.12-12.25
		c0-7.7-0.71-11.55-2.13-11.55h-8.94c-0.61,0-0.91-0.2-0.91-0.61v-2.8c0-0.41,0.3-0.61,0.91-0.61h36.23c0.57,0,0.85,0.3,0.85,0.91
		v2.49c0,0.41-0.28,0.61-0.85,0.61h-9.48c-1.34,0-2.01,0.53-2.01,1.58c0,0.45-0.02,5.11-0.06,13.98
		c-0.04,8.88-0.06,13.64-0.06,14.29c0,0.93,0.32,1.4,0.97,1.4h37.26c0.73,0,1.09-0.38,1.09-1.16c0-0.32-0.02-3.5-0.06-9.54
		c-0.04-6.04-0.06-9.36-0.06-9.97c0-7.05-0.83-10.58-2.49-10.58h-9.85c-0.41,0-0.61-0.26-0.61-0.79v-2.61c0-0.41,0.3-0.61,0.91-0.61
		h36.6c0.49,0,0.73,0.3,0.73,0.91v2.31c0,0.53-0.24,0.79-0.73,0.79h-8.51c-1.22,0-1.94,0.09-2.16,0.27
		c-0.22,0.18-0.33,0.84-0.33,1.98v32.1c0,16.45,0.04,25.96,0.12,28.51c0.28,7.7,1.11,11.55,2.49,11.55h9.36
		c0.49,0,0.73,0.26,0.73,0.79V716.72z"/>
	<path class="st25" d="M290.69,688.94c0,5.47-0.97,10.11-2.92,13.92c-2.43,4.95-5.84,8.73-10.21,11.37
		c-4.38,2.63-9.5,3.95-15.38,3.95c-5.39,0-9.54-0.71-12.46-2.13c-5.96-2.96-9.99-6.52-12.1-10.7c-2.55-5.07-3.87-10.37-3.95-15.93
		c-0.12-6.12,1.32-11.59,4.32-16.41c2.67-4.29,6.42-7.54,11.25-9.73c3.81-1.74,9.08-2.61,15.81-2.61c5.35,0,9.87,1.08,13.56,3.22
		c4.26,2.51,7.33,5.93,9.24,10.24C289.74,678.45,290.69,683.39,290.69,688.94z M278.72,691.92c-0.12-7.86-2.03-14.29-5.71-19.27
		c-3.93-5.35-8.75-7.88-14.47-7.6c-4.42,0.2-7.44,1.52-9.06,3.95c-2.43,3.61-3.65,8.71-3.65,15.32c0,6.73,1.3,13.13,3.89,19.21
		c1.58,3.73,3.73,6.59,6.44,8.57c2.19,1.58,4.8,2.37,7.84,2.37c3.24,0,5.69-0.59,7.36-1.76c2.47-1.7,4.38-4.32,5.71-7.84
		C278.25,701.83,278.8,697.51,278.72,691.92z"/>
	<path class="st25" d="M328.75,716.96c0,0.33-0.2,0.49-0.61,0.49h-31.25c-0.57,0-0.85-0.2-0.85-0.61v-2.25
		c0-0.49,0.24-0.73,0.73-0.73h8.45c0.85,0,1.28-0.46,1.28-1.4v-66.75c0-9.28-0.83-13.92-2.49-13.92h-6.38
		c-0.49,0-0.73-0.26-0.73-0.79v-1.95c0-0.61,0.16-0.91,0.49-0.91h5.71c3.16,0,6.57-0.45,10.21-1.34c3-0.77,4.46-1.16,4.38-1.16
		c0.89,0,1.34,0.59,1.34,1.76c0,0.12-0.14,12.12-0.43,35.99c-0.28,23.87-0.43,36.23-0.43,37.08c0,8.92,0.79,13.37,2.37,13.37h7.6
		c0.4,0,0.61,0.2,0.61,0.61V716.96z"/>
	<path class="st25" d="M391.42,665.05c0,0.57-0.2,0.85-0.61,0.85h-1.88c-0.73,0-1.32,0.39-1.76,1.16c-1.78,2.88-4.6,9.66-8.45,20.36
		c-1.99,5.55-3.59,9.75-4.8,12.58c-2.43,5.84-5.84,13.11-10.21,21.82c-3.45,6.97-7.74,15.16-12.89,24.56
		c-0.32,0.61-0.89,1.01-1.7,1.22c-2.27,0.12-5.11,0.3-8.51,0.55c-1.14,0.24-2.88,0.57-5.23,0.97c-0.36,0.12-0.89-0.45-1.58-1.7
		c-0.24-0.41,0.12-0.81,1.09-1.22c4.17-1.78,8.35-5.15,12.52-10.09c5.96-7.09,9.97-12.99,12.04-17.69c0.28-0.57,0.14-1.36-0.43-2.37
		c-3.4-6.28-7.76-15.91-13.07-28.88c-2.92-7.09-5.53-12.85-7.84-17.27c-1.38-2.67-2.61-4.01-3.71-4.01h-2.49
		c-0.61,0-0.91-0.12-0.91-0.37v-2.74c0-0.4,0.3-0.61,0.91-0.61h25.65c0.4,0,0.61,0.2,0.61,0.61v2.37c0,0.33-0.2,0.49-0.61,0.49
		h-5.77c-0.53,0-0.89,0.43-1.09,1.28c-0.12,0.57-0.04,1.22,0.24,1.95c1.46,3.97,3.63,9.63,6.5,16.96c1.98,4.86,4.6,10.96,7.84,18.3
		c0.45,1.01,0.93,0.97,1.46-0.12c1.99-3.81,4.07-9.24,6.26-16.29c1.98-6.4,3.38-12.34,4.19-17.81c0.45-2.84-0.34-4.25-2.37-4.25
		h-5.47c-0.65,0-0.97-0.12-0.97-0.36v-2.49c0-0.4,0.24-0.61,0.73-0.61h21.52c0.37,0,0.59,0.06,0.67,0.18
		c0.08,0.12,0.12,0.26,0.12,0.42V665.05z"/>
	<path class="st25" d="M487.41,695.93c0,6.32-2.41,11.51-7.23,15.56c-5.35,4.46-12.75,6.69-22.19,6.69c-0.97,0-4.44-0.12-10.39-0.36
		c-5.96-0.24-10.29-0.37-13.01-0.37h-9.79c-0.37,0-0.55-0.16-0.55-0.49v-2.86c0-0.45,0.18-0.67,0.55-0.67h8.94
		c1.01,0,1.52-0.69,1.52-2.07c0-0.49-0.08-6.55-0.24-18.18c-0.16-11.63-0.24-18.03-0.24-19.21v-23.77
		c-0.36-7.46-1.2-11.19-2.49-11.19h-9.73c-0.33,0-0.49-0.2-0.49-0.61v-2.92c0-0.32,0.2-0.49,0.61-0.49h20.43
		c0.53,0,2.78-0.06,6.75-0.18c3.97-0.12,6.32-0.18,7.05-0.18h6.08c3.73,0.16,6.52,0.63,8.39,1.4c2.96,1.22,5.31,2.7,7.05,4.44
		c3.4,3.4,5.11,7.48,5.11,12.22c0,4.7-1.74,9.06-5.23,13.07c-2.76,3.2-6.08,5.82-9.97,7.84c-0.41,0.16-0.18,0.36,0.67,0.61
		c4.62,1.34,8.77,3.59,12.46,6.75C485.42,684.38,487.41,689.36,487.41,695.93z M471.6,657.57c0-5.23-1.91-9.75-5.71-13.56
		c-3.32-3.28-8.15-5.02-14.47-5.23c-1.18-0.04-2.13,0-2.86,0.12c-0.57,0.08-0.9,0.56-1,1.43c-0.1,0.87-0.15,11.05-0.15,30.55
		c0,0.49,0.14,0.73,0.43,0.73c-0.12,0,0.26-0.02,1.16-0.06c0.89-0.04,2.25-0.06,4.07-0.06c2.96,0,6.18,0.26,9.67,0.79
		c0.77,0.08,1.44-0.1,2.01-0.55c2.03-1.54,3.53-3.2,4.5-4.98C470.81,663.83,471.6,660.77,471.6,657.57z M473.98,697.51
		c0-6.24-2.01-11.21-6.02-14.89c-4.62-4.34-10.46-6.5-17.51-6.5c-1.01,0-1.76,0.12-2.25,0.37c-0.16,0.08-0.24,0.51-0.24,1.28
		c0,14.35,0.04,23.02,0.12,26.02c0.16,5.63,0.61,8.65,1.34,9.06c1.66,0.93,4.11,1.4,7.36,1.4c4.98,0,8.94-1.26,11.85-3.77
		C472.19,707.42,473.98,703.1,473.98,697.51z"/>
	<path class="st25" d="M525.1,716.96c0,0.33-0.2,0.49-0.61,0.49h-30.03c-0.2,0-0.36-0.04-0.46-0.12c-0.1-0.08-0.15-0.28-0.15-0.61
		v-2.37c0-0.32,0.2-0.49,0.61-0.49h7.6c0.65,0,0.99-0.38,1.03-1.16c0.24-18.16,0.36-30.76,0.36-37.81c0-6.24-0.83-9.36-2.49-9.36
		h-6.63c-0.49,0-0.73-0.24-0.73-0.73v-2.86c0-0.37,0.16-0.55,0.49-0.55h8.21c2.59,0,4.68-0.08,6.26-0.24
		c3.93-0.4,6.04-0.61,6.32-0.61c0.57,0,0.85,0.47,0.85,1.4c0,0.2-0.04,2-0.12,5.38c-0.08,3.38-0.12,5.24-0.12,5.56
		c-0.41,2.88-0.61,12.46-0.61,28.75c0,8.15,0.75,12.22,2.25,12.22h7.36c0.4,0,0.61,0.2,0.61,0.61V716.96z M515.5,640.49
		c0,2.47-1.18,4.68-3.53,6.63c-2.03,1.66-3.91,2.49-5.65,2.49c-3.32,0-4.98-1.58-4.98-4.74c0-1.74,0.81-3.57,2.43-5.47
		c1.9-2.23,4.29-3.34,7.17-3.34C513.98,636.05,515.5,637.53,515.5,640.49z"/>
	<path class="st25" d="M591.97,690.46c0,8.96-2.9,16.05-8.69,21.28c-5.27,4.74-11.49,7.11-18.66,7.11c-5.59,0-10.96-1.18-16.11-3.53
		c-2.35-1.05-4.05-1.58-5.11-1.58c-1.5,0-2.53,2.15-3.1,6.44c-0.08,0.85-0.41,1.28-0.97,1.28h-1.28c-0.57,0-0.85-0.71-0.85-2.13
		c0-0.28,0.04-7.77,0.12-22.46c0.08-14.69,0.12-22.6,0.12-23.74c0-7.54,0.04-14.67,0.12-21.4c0.08-6.73,0.12-9.91,0.12-9.54
		c0-6.97-0.91-10.46-2.74-10.46h-6.99c-0.49,0-0.73-0.24-0.73-0.73v-1.88c0-0.65,0.2-0.97,0.61-0.97h2.25
		c8.51,0,14.33-0.75,17.45-2.25c1.05-0.53,1.84-0.79,2.37-0.79c0.41,0,0.61,0.63,0.61,1.88c0,0.04-0.18,6.37-0.55,19
		c-0.37,12.62-0.55,20.29-0.55,23.01c0,1.01,0.2,1.32,0.61,0.91c3.85-3.08,6.58-5.04,8.21-5.9c2.84-1.46,6.08-2.19,9.73-2.19
		c7.25,0,13.11,2.66,17.57,7.96C589.82,674.94,591.97,681.83,591.97,690.46z M581.15,693.68c0-7.05-1.74-12.95-5.23-17.69
		c-2.92-3.97-7.94-5.96-15.08-5.96c-4.5,0-8.15,1.16-10.94,3.46c-0.32,0.33-0.49,0.79-0.49,1.4v21.76c0,5.47,0.32,9.87,0.97,13.19
		c0.28,1.42,0.91,2.37,1.88,2.86c2.8,1.42,6.32,2.13,10.58,2.13c5.35,0,9.79-1.86,13.31-5.59
		C579.49,705.72,581.15,700.53,581.15,693.68z"/>
	<path class="st25" d="M629.72,716.96c0,0.33-0.2,0.49-0.61,0.49h-31.25c-0.57,0-0.85-0.2-0.85-0.61v-2.25
		c0-0.49,0.24-0.73,0.73-0.73h8.45c0.85,0,1.28-0.46,1.28-1.4v-66.75c0-9.28-0.83-13.92-2.49-13.92h-6.38
		c-0.49,0-0.73-0.26-0.73-0.79v-1.95c0-0.61,0.16-0.91,0.49-0.91h5.71c3.16,0,6.57-0.45,10.21-1.34c3-0.77,4.46-1.16,4.38-1.16
		c0.89,0,1.34,0.59,1.34,1.76c0,0.12-0.14,12.12-0.43,35.99c-0.28,23.87-0.42,36.23-0.42,37.08c0,8.92,0.79,13.37,2.37,13.37h7.6
		c0.4,0,0.61,0.2,0.61,0.61V716.96z"/>
	<path class="st25" d="M685.41,707.84c-0.08,0.24-0.2,0.47-0.37,0.67c-2.67,2.67-6.2,4.99-10.58,6.93c-4.62,2.07-9.28,3.1-13.98,3.1
		c-7.5,0-13.46-2.11-17.87-6.32c-5.07-4.82-7.86-11.08-8.39-18.78c-0.24-3.97,0.18-8.09,1.28-12.34c1.58-6.08,4.19-10.8,7.84-14.16
		c3.93-3.69,8.57-5.53,13.92-5.53c4.29,0,8.57,0.79,12.83,2.37c3.69,1.38,7.05,3.59,10.09,6.63c2.11,2.11,3.65,3.97,4.62,5.59
		c0.32,0.45,0.49,1.07,0.49,1.88c0,0.49-0.34,0.86-1.03,1.12c-0.69,0.26-3.29,0.87-7.81,1.82c-4.52,0.95-7.39,1.51-8.6,1.67
		c-2.43,0.37-4.88,0.75-7.36,1.16c-4.7,0.69-7.76,1.03-9.18,1.03c-0.2,0-1.02,0.02-2.46,0.06c-1.44,0.04-2.28,0.06-2.52,0.06
		c-0.41,0-0.57,0.97-0.49,2.92c0.37,7.78,2.63,14.12,6.81,19.03c1.42,1.62,3.79,2.88,7.11,3.77c2.92,0.77,5.84,1.13,8.75,1.09
		c4.54-0.12,8.15-0.87,10.82-2.25c1.7-0.89,2.98-1.76,3.83-2.61c0.16-0.12,0.36-0.24,0.61-0.37c0.2,0,0.59,0.28,1.16,0.85
		C685.24,707.56,685.41,707.76,685.41,707.84z M671.24,676.72c0-0.08-0.18-0.61-0.55-1.58c-0.97-1.78-1.6-2.88-1.88-3.28
		c-0.89-1.21-2.21-2.53-3.95-3.95c-2.47-1.99-5.25-2.98-8.33-2.98c-2.59,0-4.88,1.4-6.87,4.19c-0.69,1.01-1.4,2.77-2.13,5.26
		c-0.73,2.49-1.09,4.49-1.09,5.99c0,0.81,0.16,1.21,0.49,1.21c2.15,0,5.07-0.16,8.75-0.49c1.26-0.12,3.74-0.59,7.45-1.4
		c3.71-0.81,6.11-1.42,7.2-1.82C670.94,677.59,671.24,677.2,671.24,676.72z"/>
</g>
</svg>
