<?xml version="1.0" encoding="utf-8"?>
<!-- Generator: Adobe Illustrator 24.3.0, SVG Export Plug-In . SVG Version: 6.00 Build 0)  -->
<svg version="1.1" xmlns="http://www.w3.org/2000/svg" xmlns:xlink="http://www.w3.org/1999/xlink" x="0px" y="0px"
	 viewBox="0 0 4600 3500" style="enable-background:new 0 0 4600 3500;" xml:space="preserve">
<style type="text/css">
	.st0{fill-rule:evenodd;clip-rule:evenodd;fill:#20A0E2;}
	.st1{fill-rule:evenodd;clip-rule:evenodd;fill:#FDD969;}
	.st2{fill-rule:evenodd;clip-rule:evenodd;fill:#C62934;}
	.st3{fill-rule:evenodd;clip-rule:evenodd;fill:none;stroke:#000000;stroke-width:10;stroke-miterlimit:10;}
	.st4{fill:none;stroke:#000000;stroke-width:10;stroke-miterlimit:10;}
	.st5{fill-rule:evenodd;clip-rule:evenodd;fill:#F2EA6F;}
	.st6{fill-rule:evenodd;clip-rule:evenodd;fill:#BEE2FC;}
	.st7{fill-rule:evenodd;clip-rule:evenodd;fill:#89979A;}
	.st8{fill-rule:evenodd;clip-rule:evenodd;fill:#F5BDAD;}
	.st9{fill:#E6926B;}
	.st10{fill-rule:evenodd;clip-rule:evenodd;fill:#F0A196;}
	.st11{fill-rule:evenodd;clip-rule:evenodd;fill:#FFFFFF;}
	.st12{fill-rule:evenodd;clip-rule:evenodd;}
	.st13{fill:#C0C0C0;}
	.st14{fill-rule:evenodd;clip-rule:evenodd;fill:#2A3B45;}
	.st15{fill:#FFFFFF;}
	.st16{fill:#000102;}
	.st17{fill-rule:evenodd;clip-rule:evenodd;fill:#945133;}
	.st18{fill-rule:evenodd;clip-rule:evenodd;fill:#F1B3A3;}
	.st19{fill-rule:evenodd;clip-rule:evenodd;fill:#B64F3C;}
	.st20{fill-rule:evenodd;clip-rule:evenodd;fill:#C0C0C0;}
	.st21{fill-rule:evenodd;clip-rule:evenodd;fill:#000102;}
	.st22{fill:#BB7452;}
</style>
<g id="background">
	<g>
		<g>
			<path class="st0" d="M2487.38,418.42c17.19,0,31.14,15.04,31.14,33.56c0,18.52-13.95,33.56-31.14,33.56
				c-17.19,0-31.14-15.04-31.14-33.56C2456.24,433.46,2470.2,418.42,2487.38,418.42L2487.38,418.42z"/>
			<path class="st1" d="M2583.43,419.13c17.19,0,31.14,15.04,31.14,33.56c0,18.52-13.95,33.56-31.14,33.56
				c-17.19,0-31.14-15.04-31.14-33.56C2552.29,434.17,2566.25,419.13,2583.43,419.13L2583.43,419.13z"/>
			<path class="st2" d="M2681.75,419.29c17.19,0,31.14,15.04,31.14,33.56c0,18.52-13.95,33.56-31.14,33.56
				c-17.19,0-31.14-15.04-31.14-33.56C2650.61,434.33,2664.56,419.29,2681.75,419.29L2681.75,419.29z"/>
		</g>
		<rect x="2416.13" y="532.49" class="st3" width="1665.04" height="1255.31"/>
		<rect x="2416.13" y="370.4" class="st4" width="1665.04" height="162.09"/>
	</g>
	<polygon class="st5" points="4071,618.61 2432.63,618.61 2432.63,1748.36 4071,1748.36 4071,618.61 	"/>
	<g>
		<g>
			<path class="st0" d="M496.28,368.01c18.4,0,33.34,15.47,33.34,34.53c0,19.06-14.94,34.53-33.34,34.53
				c-18.4,0-33.34-15.47-33.34-34.53C462.95,383.48,477.88,368.01,496.28,368.01L496.28,368.01z"/>
			<path class="st1" d="M599.1,368.74c18.4,0,33.34,15.47,33.34,34.53c0,19.06-14.94,34.53-33.34,34.53
				c-18.4,0-33.34-15.47-33.34-34.53C565.77,384.21,580.7,368.74,599.1,368.74L599.1,368.74z"/>
			<path class="st2" d="M704.35,368.91c18.4,0,33.34,15.47,33.34,34.53c0,19.06-14.94,34.53-33.34,34.53
				c-18.4,0-33.34-15.47-33.34-34.53C671.02,384.38,685.95,368.91,704.35,368.91L704.35,368.91z"/>
		</g>
		<rect x="420" y="485.37" class="st3" width="1782.42" height="1291.51"/>
		<rect x="420" y="318.61" class="st4" width="1782.42" height="166.76"/>
	</g>
	<polygon class="st6" points="2154.45,619.59 589.96,619.59 589.96,1765.61 2154.45,1765.61 2154.45,619.59 	"/>
	<g>
		<g>
			<path class="st0" d="M574.28,1900.99c17.96,0,32.53,13.82,32.53,30.85c0,17.03-14.58,30.85-32.53,30.85s-32.53-13.82-32.53-30.85
				C541.74,1914.81,556.32,1900.99,574.28,1900.99L574.28,1900.99z"/>
			<path class="st1" d="M674.62,1901.64c17.96,0,32.53,13.82,32.53,30.85c0,17.03-14.58,30.85-32.53,30.85s-32.53-13.82-32.53-30.85
				C642.09,1915.46,656.66,1901.64,674.62,1901.64L674.62,1901.64z"/>
			<path class="st2" d="M777.33,1901.79c17.96,0,32.53,13.82,32.53,30.85c0,17.03-14.58,30.85-32.53,30.85
				c-17.96,0-32.53-13.82-32.53-30.85C744.8,1915.61,759.38,1901.79,777.33,1901.79L777.33,1901.79z"/>
		</g>
		<rect x="499.83" y="2005.83" class="st3" width="1739.49" height="1153.81"/>
		<rect x="499.83" y="1856.85" class="st4" width="1739.49" height="148.98"/>
	</g>
	<polygon class="st5" points="2160.03,2036.73 563.04,2036.73 563.04,3072.73 2160.03,3072.73 2160.03,2036.73 	"/>
	<g>
		<g>
			<path class="st0" d="M2449.8,1924.68c18.87,0,34.2,14.36,34.2,32.06c0,17.69-15.32,32.05-34.2,32.05s-34.2-14.36-34.2-32.05
				C2415.6,1939.04,2430.92,1924.68,2449.8,1924.68L2449.8,1924.68z"/>
			<path class="st1" d="M2555.27,1925.35c18.87,0,34.2,14.36,34.2,32.06c0,17.69-15.32,32.06-34.2,32.06
				c-18.87,0-34.2-14.36-34.2-32.06C2521.07,1939.72,2536.4,1925.35,2555.27,1925.35L2555.27,1925.35z"/>
			<path class="st2" d="M2663.24,1925.51c18.87,0,34.2,14.36,34.2,32.06c0,17.69-15.32,32.06-34.2,32.06s-34.2-14.36-34.2-32.06
				C2629.04,1939.88,2644.37,1925.51,2663.24,1925.51L2663.24,1925.51z"/>
		</g>
		<rect x="2371.54" y="2033.62" class="st3" width="1828.46" height="1198.91"/>
		<rect x="2371.54" y="1878.82" class="st4" width="1828.46" height="154.8"/>
	</g>
	<polygon class="st6" points="4071,2085.76 2431.35,2085.76 2431.35,3072.73 4071,3072.73 4071,2085.76 	"/>
</g>
<g id="Elements">
	<g id="left_top">
		<g>
			<path class="st7" d="M1380.76,885.7c0,0-36.93-102.29-8.42-180.34c24.79-67.87,59.97-82.43,84.16-88.09
				c8.72-2.04,91.93-73.96,188.83-35.67c96.9,38.29,99,74.69,88.95,111.58c-10.05,36.89-65.09,90.54-65.09,90.54L1380.76,885.7
				L1380.76,885.7z"/>
			<path class="st8" d="M1452.22,739.59c0,0-30.15-29.7-53.52-5.69c-23.37,24.01,6.65,78.49,6.65,78.49l-72.67,216.64l149.87,22.42
				l40.14-101.38c0,0,73.63,46.2,96.92-15.17c23.29-61.37,76.45-237.4,76.45-237.4c-68.14-3.76-134.06-15.31-197.03-37.23
				C1490.72,688.72,1473.02,714.58,1452.22,739.59L1452.22,739.59z"/>
			<path class="st9" d="M1606.21,920.06c-0.2,0-0.4-0.04-0.59-0.12c-0.76-0.33-1.12-1.21-0.79-1.97c3.1-7.25-3.08-21.28-3.14-21.42
				c-0.34-0.76,0-1.64,0.76-1.98c0.75-0.34,1.64,0,1.98,0.76c0.28,0.62,6.78,15.36,3.16,23.82
				C1607.34,919.71,1606.79,920.06,1606.21,920.06z M1502.63,899.05c-0.69,0-1.31-0.48-1.46-1.18
				c-3.42-15.53,17.21-31.96,18.09-32.65c0.65-0.51,1.59-0.4,2.11,0.25c0.51,0.65,0.4,1.59-0.25,2.11
				c-0.2,0.16-20.03,15.95-17.01,29.64c0.18,0.81-0.33,1.61-1.14,1.79C1502.84,899.04,1502.74,899.05,1502.63,899.05z
				 M1631.42,858.8c-0.47,0-0.94-0.22-1.23-0.64c-7.11-10.08-9.84-45.84-9.96-47.36c-0.06-0.83,0.56-1.55,1.38-1.61
				c0.82-0.07,1.55,0.56,1.61,1.38c0.03,0.36,2.78,36.44,9.42,45.85c0.48,0.68,0.32,1.61-0.36,2.09
				C1632.02,858.72,1631.72,858.8,1631.42,858.8z M1528.9,831.51c-0.58,0-1.14-0.34-1.38-0.92c-0.32-0.76,0.04-1.64,0.8-1.96
				c19.21-8.11,41-32.9,41.21-33.15c0.54-0.62,1.49-0.69,2.12-0.14c0.62,0.54,0.69,1.49,0.14,2.12
				c-0.91,1.04-22.46,25.56-42.31,33.94C1529.29,831.48,1529.09,831.51,1528.9,831.51z M1479.71,773.67c-0.75,0-1.4-0.56-1.49-1.33
				c-0.09-0.82,0.5-1.57,1.32-1.66l27.23-3.11c0.82-0.1,1.57,0.5,1.66,1.32c0.09,0.82-0.5,1.57-1.32,1.66l-27.23,3.11
				C1479.83,773.66,1479.77,773.67,1479.71,773.67z M1517.59,760.61c-0.38,0-0.77-0.15-1.06-0.44l-17.18-17.14
				c-0.59-0.59-0.59-1.53,0-2.12c0.58-0.59,1.53-0.59,2.12,0l17.18,17.14c0.59,0.58,0.59,1.53,0,2.12
				C1518.36,760.46,1517.97,760.61,1517.59,760.61z"/>
			<path class="st10" d="M1522.04,948.24l-43.01-25.06c0,0,16.97,30.2,15.39,50.72c-1.58,20.52,0.3,39.24,0.3,39.24L1522.04,948.24
				L1522.04,948.24z"/>
			<path d="M1565.29,845c-0.81,0-1.48-0.64-1.5-1.46c-0.02-0.83,0.63-1.52,1.46-1.54l24.85-0.71l22.64-71.33
				c0.25-0.79,1.09-1.23,1.88-0.98c0.79,0.25,1.23,1.09,0.98,1.88l-22.97,72.34c-0.19,0.61-0.75,1.03-1.39,1.05l-25.91,0.74
				C1565.32,845,1565.3,845,1565.29,845z M1497.88,661.63c-0.42,0-0.84-0.18-1.14-0.52l-35.88-41.52c-0.54-0.63-0.47-1.57,0.15-2.12
				s1.57-0.47,2.12,0.15l35.88,41.52c0.54,0.63,0.47,1.57-0.15,2.12C1498.57,661.51,1498.22,661.63,1497.88,661.63z"/>
			<path class="st11" d="M1560.36,893.12c-11.64-4.51-21.74-7.91-21.62-2.41c0.12,5.5,6.31,16.04,14.79,18.44
				C1560.83,911.22,1575.68,899.06,1560.36,893.12L1560.36,893.12z"/>
			<path class="st12" d="M1542.83,723.83c0.7-6.05,12.87-6.88,26.64-5.39c15.6,1.68,20.39,6.25,19.53,10.67
				c-0.86,4.42-18.55,3.28-25.91,1.83C1556.2,729.57,1542.12,729.88,1542.83,723.83L1542.83,723.83z"/>
			<path class="st12" d="M1631.54,735.97c0.67-6.05,11.65-5.64,24.66-2.99c13.56,2.76,19.78,8.39,18.95,12.82
				c-0.84,4.42-13.84,1.49-22.89-0.19C1645.36,744.32,1630.87,742.02,1631.54,735.97L1631.54,735.97z"/>
			<path class="st12" d="M1565.05,757.9c3.62,1.23,5.02,6.52,3.14,11.8c-1.89,5.28-6.36,8.57-9.97,7.34
				c-3.62-1.23-5.02-6.52-3.14-11.8C1556.96,759.97,1561.43,756.67,1565.05,757.9L1565.05,757.9z"/>
			<path class="st12" d="M1647.86,769.51c3.62,1.23,5.02,6.52,3.14,11.8c-1.89,5.28-6.35,8.57-9.97,7.34
				c-3.62-1.23-5.02-6.52-3.14-11.8C1639.77,771.57,1644.24,768.28,1647.86,769.51L1647.86,769.51z"/>
			<path d="M1391.94,853.71c-0.46,0-0.91-0.21-1.2-0.6c-0.24-0.33-24.21-33.09-19.39-74.51c0.1-0.82,0.84-1.41,1.66-1.32
				c0.82,0.1,1.41,0.84,1.32,1.66c-4.69,40.25,18.58,72.06,18.81,72.37c0.49,0.66,0.36,1.6-0.31,2.1
				C1392.57,853.62,1392.25,853.71,1391.94,853.71z M1417.3,773.41c-0.57,0-1.11-0.32-1.36-0.87c-6.03-12.96,2.58-22.06,5.84-24.9
				c-6.62-1.54-13.86,2.8-13.94,2.85c-0.71,0.43-1.63,0.21-2.06-0.5c-0.43-0.71-0.21-1.63,0.5-2.06c0.41-0.25,10.13-6.1,18.62-2.41
				c5.19,2.25,8.66,7.49,10.33,15.59c0.17,0.81-0.35,1.61-1.17,1.77c-0.82,0.17-1.61-0.35-1.77-1.17
				c-1.31-6.37-3.78-10.66-7.34-12.8c-0.08,0.1-0.18,0.19-0.29,0.26c-0.53,0.37-12.2,8.75-5.99,22.1c0.35,0.75,0.02,1.64-0.73,1.99
				C1417.72,773.37,1417.51,773.41,1417.3,773.41z M1698.24,750.56c-0.26,0-0.53-0.07-0.77-0.21c-0.71-0.42-0.94-1.34-0.52-2.06
				c0.09-0.15,9.1-15.6,17.45-55.83c2.64-12.71,0.85-22.67-5.47-30.46c-14.8-18.25-52.84-20.48-80.16-20.57c-0.25,0-0.5,0-0.75,0
				c-40.67,0-137.11,10.71-138.08,10.82c-0.83,0.09-1.57-0.5-1.66-1.32c-0.09-0.82,0.5-1.57,1.32-1.66
				c0.98-0.11,98.8-10.99,139.18-10.83c58.32,0.19,75,12.47,82.48,21.68c6.82,8.41,8.87,19.5,6.08,32.96
				c-8.47,40.84-17.43,56.13-17.81,56.76C1699.25,750.3,1698.75,750.56,1698.24,750.56z M1423.36,704.74
				c-0.27,0-0.54-0.07-0.79-0.22c-0.7-0.44-0.92-1.36-0.49-2.06c14.1-22.84,28.98-38.78,38.98-48.13
				c10.86-10.16,18.29-14.85,18.6-15.04c0.7-0.44,1.63-0.23,2.07,0.48c0.44,0.7,0.23,1.63-0.48,2.07
				c-0.3,0.19-30.01,19.11-56.62,62.21C1424.35,704.49,1423.86,704.74,1423.36,704.74z M1397.11,692.14c-0.19,0-0.39-0.04-0.58-0.12
				c-0.76-0.32-1.12-1.2-0.8-1.96c0.2-0.48,20.92-48.65,69.63-67.56c0.77-0.3,1.64,0.08,1.94,0.86c0.3,0.77-0.08,1.64-0.86,1.94
				c-47.54,18.45-67.75,65.45-67.95,65.92C1398.25,691.8,1397.7,692.14,1397.11,692.14z M1474.43,632.22
				c-0.44,0-0.87-0.19-1.16-0.55c-0.52-0.64-0.43-1.59,0.22-2.11c0.42-0.34,43-34.45,111.25-41.45c0.82-0.09,1.56,0.52,1.65,1.34
				c0.08,0.82-0.52,1.56-1.34,1.65c-67.32,6.9-109.25,40.45-109.67,40.79C1475.1,632.11,1474.76,632.22,1474.43,632.22z
				 M1594.91,612.13c-0.68,0-1.29-0.46-1.46-1.15c-0.19-0.81,0.31-1.61,1.11-1.81c0.48-0.11,48.77-11.38,99.79-3.73
				c0.82,0.12,1.38,0.89,1.26,1.71c-0.12,0.82-0.89,1.38-1.71,1.26c-50.45-7.57-98.17,3.57-98.65,3.68
				C1595.14,612.12,1595.03,612.13,1594.91,612.13z"/>
		</g>
		<g>
			<polygon class="st8" points="2069.65,1214.53 2161.8,1003.25 2347.71,1068.76 2285.89,1215.17 2069.65,1214.53 			"/>
			<path class="st12" d="M1339.07,988.17l-21.07,57.03c0,0-280.19,18.67-317.27,70.21c-37.08,51.54-185.49,667.87-185.49,667.87
				l330.52,2.13c0,0,101.47,126.88,120.38,140.12c43.89,30.72,614.32,71.31,614.32,71.31l77.74-205.93l118.09-2.2l240.17-606.42
				l-242.19-9.59l-196.31,416.93c0,0-118.54-388.77-133.8-418.2c-15.26-29.42-253.84-107.94-253.84-107.94l8.89-42.55
				L1339.07,988.17L1339.07,988.17z"/>
			<polygon class="st11" points="1403.71,999.7 1393.07,1047.62 1419.89,1053.12 1435.11,1007.53 1403.71,999.7 			"/>
			<path class="st13" d="M1400.09,1376.03c-0.81,0-1.47-0.64-1.5-1.45l-2.46-80.95l-25.76,1.7c-0.82,0.06-1.54-0.57-1.6-1.4
				c-0.05-0.83,0.57-1.54,1.4-1.6l25.87-1.71l-1.1-36.14c-16.85-2.47-39.21-36.97-66.5-102.62
				c-20.74-49.89-36.85-100.22-37.02-100.73c-0.25-0.79,0.18-1.63,0.97-1.89c0.79-0.25,1.63,0.18,1.89,0.97
				c0.16,0.5,16.24,50.73,36.93,100.5c33.7,81.07,53.69,99.77,64.64,100.85c58.19-53.42,83.84-120.36,101.26-178.82
				c0.24-0.79,1.07-1.25,1.87-1.01c0.79,0.24,1.25,1.07,1.01,1.87c-11.55,38.75-23.48,69.17-37.56,95.73
				c-17.49,32.99-38.6,60.61-64.52,84.42l1.12,36.66l33.37-2.21c0.83-0.06,1.54,0.57,1.6,1.4c0.05,0.83-0.57,1.54-1.4,1.6
				l-33.47,2.21l2.47,81.06c0.02,0.83-0.63,1.52-1.45,1.54C1400.12,1376.03,1400.11,1376.03,1400.09,1376.03z"/>
			<path class="st11" d="M1134.35,1066.65l59.51,323.5c0,0,130.15,299.88,201.78,324.09l47.97,7.79l-168.8-673.92L1134.35,1066.65
				L1134.35,1066.65z"/>
			<path d="M1443.6,1723.53c-0.08,0-0.16-0.01-0.24-0.02l-47.96-7.79c-0.08-0.01-0.16-0.03-0.24-0.06
				c-30.08-10.17-73.35-67.99-128.6-171.84c-41.04-77.16-73.75-152.32-74.08-153.07c-0.05-0.1-0.08-0.21-0.1-0.33l-59.5-323.5
				c-0.07-0.4,0.02-0.82,0.26-1.15s0.61-0.55,1.02-0.6l140.45-18.53c0.76-0.1,1.47,0.38,1.65,1.12l168.8,673.92
				c0.12,0.49-0.01,1.01-0.35,1.38C1444.42,1723.36,1444.02,1723.53,1443.6,1723.53z M1396,1712.78l45.59,7.4l-167.92-670.41
				l-137.56,18.15l59.19,321.78c1.7,3.89,33.83,77.36,73.92,152.72C1323.24,1643.99,1367.08,1702.89,1396,1712.78z"/>
			<polygon class="st11" points="1505.24,1071.99 1575.73,1740.23 1676.39,1753.65 1698.11,1137.26 1505.24,1071.99 			"/>
			<path d="M1676.39,1755.15c-0.07,0-0.13,0-0.2-0.01l-100.66-13.41c-0.69-0.09-1.22-0.64-1.29-1.33l-70.49-668.25
				c-0.05-0.51,0.16-1.01,0.55-1.33c0.4-0.32,0.93-0.41,1.42-0.25l192.87,65.28c0.63,0.21,1.04,0.81,1.02,1.47l-21.72,616.38
				c-0.01,0.42-0.21,0.82-0.53,1.09C1677.08,1755.02,1676.74,1755.15,1676.39,1755.15z M1577.1,1738.9l97.85,13.04l21.62-613.61
				l-189.59-64.17L1577.1,1738.9z"/>
			<path class="st13" d="M1958.15,1796.74c-0.07,0-0.14,0-0.21-0.01l-581.81-82.48c-0.82-0.12-1.39-0.88-1.27-1.7
				c0.12-0.82,0.88-1.39,1.7-1.27l581.81,82.48c0.82,0.12,1.39,0.88,1.27,1.7C1959.53,1796.19,1958.88,1796.74,1958.15,1796.74z
				 M1143.73,1781.41c-0.5,0-0.98-0.25-1.27-0.69l-152.25-238.75c-0.45-0.7-0.24-1.63,0.46-2.07c0.7-0.45,1.63-0.24,2.07,0.46
				L1145,1779.1c0.45,0.7,0.24,1.63-0.46,2.07C1144.29,1781.33,1144.01,1781.41,1143.73,1781.41z M1864.95,1678.58
				c-0.07,0-0.15,0-0.22-0.02c-0.82-0.12-1.39-0.88-1.27-1.7l11.85-80.41c0.12-0.82,0.88-1.39,1.7-1.27
				c0.82,0.12,1.39,0.88,1.27,1.7l-11.85,80.41C1866.32,1678.05,1865.68,1678.58,1864.95,1678.58z"/>
			<path class="st8" d="M1948.46,1815.57l-58.39,149.19c0,0,81.76,28.04,171.64,22.95c42.64-2.41,87.33-19.44,123.45-39.83
				c40.03-22.6,69.55-49.34,74.12-64.92c8.69-29.63-144.67-41.35-144.67-41.35s85.58-19.49,83.76-40.52
				c-1.82-21.03-163.33,17.72-189.1,20.51C1983.5,1824.39,1948.46,1815.57,1948.46,1815.57L1948.46,1815.57z"/>
		</g>
		<g>
			<polygon class="st14" points="2064.89,769.43 1939.76,1113.57 2316.23,1148.46 2464.99,821.34 2239.5,662.68 2182.81,785.24
				2064.89,769.43 			"/>
			<path class="st15" d="M2327.1,1123.52c-0.05,0-0.1,0-0.15-0.01l-341.93-33.13c-0.46-0.04-0.87-0.3-1.12-0.69s-0.3-0.87-0.15-1.31
				l99.76-282.29c0.23-0.66,0.89-1.08,1.6-0.99l362.96,44.5c0.82,0.1,1.41,0.85,1.31,1.67c-0.1,0.82-0.84,1.41-1.67,1.31
				l-361.76-44.36l-98.72,279.35l340.02,32.94c0.82,0.08,1.43,0.81,1.35,1.64C2328.51,1122.94,2327.86,1123.52,2327.1,1123.52z
				 M2181.24,1060.08c-0.17,0-0.33-0.03-0.5-0.09c-0.78-0.28-1.19-1.13-0.92-1.91l43.68-123.66l-84.18-12.49
				c-0.82-0.12-1.39-0.88-1.26-1.7c0.12-0.82,0.89-1.38,1.7-1.26l84.76,12.58l26.73-75.67c0.28-0.78,1.13-1.19,1.91-0.91
				c0.78,0.28,1.19,1.13,0.92,1.91l-26.54,75.12l76.27,11.32c0.82,0.12,1.39,0.88,1.26,1.7c-0.12,0.82-0.89,1.38-1.7,1.26
				l-76.85-11.4l-43.88,124.21C2182.44,1059.69,2181.86,1060.08,2181.24,1060.08z"/>
			<polygon class="st11" points="2200.26,788.1 2245.08,684.03 2449.1,820.75 2200.26,788.1 			"/>
		</g>
		<path class="st8" d="M2401.86,960.69c-14.53-29.78-112.09-115.81-140.36-74.91c-9.61,13.91-27.02,73.79-14.22,109
			c24.85,68.32,82.95,125.47,82.95,125.47C2374.97,1064.28,2413.98,985.54,2401.86,960.69L2401.86,960.69z"/>
		<path d="M2321.31,1051.94c-0.45,0-0.89-0.2-1.19-0.58l-77.44-100.55c-0.51-0.66-0.38-1.6,0.27-2.1c0.66-0.51,1.6-0.38,2.1,0.27
			l77.44,100.55c0.51,0.66,0.38,1.6-0.27,2.1C2321.95,1051.84,2321.63,1051.94,2321.31,1051.94z M2339.19,1012.46
			c-0.42,0-0.84-0.18-1.14-0.52l-86.43-100.3c-0.54-0.63-0.47-1.57,0.16-2.12c0.63-0.54,1.58-0.47,2.12,0.16l86.44,100.3
			c0.54,0.63,0.47,1.57-0.16,2.12C2339.89,1012.34,2339.54,1012.46,2339.19,1012.46z M2362.25,979.82c-0.4,0-0.79-0.16-1.09-0.47
			l-91.89-96.91c-0.57-0.6-0.54-1.55,0.06-2.12c0.6-0.57,1.55-0.54,2.12,0.06l91.89,96.91c0.57,0.6,0.54,1.55-0.06,2.12
			C2363,979.68,2362.63,979.82,2362.25,979.82z"/>
	</g>
	<g id="left_bottom">
		<path class="st11" d="M1900.06,1985.51c10.1,2.16,171.48,105.47,171.48,105.47l-274.73,431.48l386.5-156.84l81.35,206.82
			c-217.59,133.77-447.67,247.39-691.73,338.5l-3.86,153.69l-751.96-6.23l25.86-675.23c0,0,113.03-126.25,178.7-140.49
			c65.67-14.24,499.14,168.32,499.14,168.32S1889.96,1983.35,1900.06,1985.51L1900.06,1985.51z"/>
		<path class="st0" d="M1570.09,3024.06l-1.02,40.57l-751.96-6.23l1.25-32.66L1570.09,3024.06L1570.09,3024.06z M1570.42,3010.95
			l-751.56,1.68l2.04-53.34l750.85-1.47L1570.42,3010.95L1570.42,3010.95z M1624.21,2891.39c-17.05,6.63-34.14,13.15-51.27,19.55
			l-0.85,33.78l-750.67,1.47l2.07-54.06l800.76-0.75L1624.21,2891.39L1624.21,2891.39z M1749.21,2840.22
			c-15.31,6.57-30.66,13.06-46.06,19.44c-14.96,6.2-29.95,12.31-44.99,18.33l-0.62,0.25l-833.55,0.78l1.48-38.63l924.9-0.67
			L1749.21,2840.22L1749.21,2840.22z M1892.15,2775.39c-18.58,8.88-37.24,17.61-55.96,26.2c-18.3,8.39-36.67,16.64-55.09,24.76
			l-0.56,0.25l-954.58,0.69l1.91-49.91l1065.28-2.46L1892.15,2775.39L1892.15,2775.39z M2023.84,2709.44
			c-17.29,9.06-34.64,18-52.06,26.8c-16.99,8.59-34.05,17.06-51.16,25.41l-0.17,0.08l-1092.06,2.52l2-52.28l1194.7-3.2
			L2023.84,2709.44L2023.84,2709.44z M2146.89,2642.16c-32.04,18.25-64.34,36.07-96.9,53.45l-1219.1,3.26l2.12-55.27
			L2146.89,2642.16L2146.89,2642.16z M2259.56,2575.57c-14.89,9.12-29.83,18.15-44.84,27.08c-14.58,8.68-29.21,17.27-43.9,25.77
			l-1.05,0.61l-1336.27,1.46l2.06-53.84c461.38-1.14,1135.95-1.65,1425.22-1.83L2259.56,2575.57L2259.56,2575.57z M1832.69,2507.9
			l406.08-1.28l21.67,55.09l-14.19,0.01c-259.03,0.16-518.06,0.39-777.09,0.72c-106.88,0.13-213.75,0.29-320.63,0.47
			c-102.96,0.18-205.91,0.38-308.87,0.63l-3.6,0.01l2.01-52.52l967.95-3.04l-9.21,14.47L1832.69,2507.9L1832.69,2507.9z
			 M1814.39,2494.85l-975.81,3.07l2.01-52.4l1006.2-1.56L1814.39,2494.85L1814.39,2494.85z M2233.62,2493.53l-368.38,1.16
			l125.55-50.95l223.11-0.35L2233.62,2493.53L2233.62,2493.53z M1549.79,2377.51l340.02-1.11l-34.67,54.45l-1014.06,1.57l1.89-49.24
			c0,0,1.07-1.19,3.06-3.36l594.08-1.95l1.92,0.78c20.04,8.1,40.06,16.27,60.03,24.54c4.63,1.92,9.25,3.84,13.87,5.77
			c1.21,0.51,2.43,1.01,3.64,1.52c0.31,0.13,0.62,0.26,0.93,0.39c0.1,0.04,0.22,0.2,0.31,0.13c0.42-0.34,0.71-0.82,1.06-1.23
			c0.43-0.5,0.87-1,1.3-1.5c2.26-2.61,4.52-5.23,6.77-7.84c5.82-6.73,11.64-13.45,17.46-20.18L1549.79,2377.51L1549.79,2377.51z
			 M2208.75,2430.29l-185.52,0.29l135.7-55.07l28.24-0.09L2208.75,2430.29L2208.75,2430.29z M1268.57,2311.32
			c48.85,18.04,97.63,37.03,139.1,53.54l-549.31,1.8c13.11-13.73,33.43-34.25,56.36-54.75L1268.57,2311.32L1268.57,2311.32z
			 M1607.72,2310.76l324.23-0.54l-33.77,53.04l-337,1.1l2.08-2.39c14.48-16.7,28.98-33.4,43.48-50.08L1607.72,2310.76
			L1607.72,2310.76z M1059.04,2245.25c6.11,1.17,12.19,2.51,18.25,3.95c5.65,1.34,11.29,2.78,16.9,4.28
			c13.3,3.54,26.51,7.43,39.67,11.48c14.81,4.57,29.56,9.37,44.25,14.31c17.85,6,35.62,12.21,53.35,18.55l1.27,0.45l-302.9,0.51
			c27.78-23.5,57.75-44.94,82.62-53.48l46.34-0.1L1059.04,2245.25L1059.04,2245.25z M1665.95,2243.94l308.6-0.64l-34.25,53.79
			l-321.16,0.54l0.99-1.14c15.06-17.31,30.14-34.6,45.24-51.88L1665.95,2243.94L1665.95,2243.94z M1725.32,2176.19l292.38-0.66
			l-34.79,54.64l-305.48,0.64l0.85-0.97c15.28-17.47,30.58-34.92,45.9-52.35L1725.32,2176.19L1725.32,2176.19z M1783.87,2109.9
			l275.97-0.54l-33.78,53.05l-289.18,0.65l0.4-0.45c15.49-17.59,31.02-35.16,46.58-52.69L1783.87,2109.9L1783.87,2109.9z
			 M1996.76,2043.55c38.95,24.48,74.78,47.42,74.78,47.42l-3.47,5.44c-0.5-0.12-1.02-0.18-1.55-0.18l-270.97,0.53l0.38-0.42
			c15.67-17.59,31.39-35.13,47.24-52.56l0.08-0.09L1996.76,2043.55L1996.76,2043.55z M1855.23,2030.57
			c25.77-28.06,42.77-45.51,44.83-45.07c4.49,0.96,38.95,21.95,75.8,44.95L1855.23,2030.57L1855.23,2030.57z"/>
		<path d="M2158.23,2637.18c-0.47,0-0.94-0.22-1.23-0.64c-29.93-42.79-54.89-100.55-70.56-141.47c-16.96-44.31-27-78.98-27.09-79.32
			c-0.23-0.8,0.23-1.63,1.03-1.86c0.8-0.23,1.63,0.23,1.86,1.03c0.4,1.38,40.26,138.47,97.23,219.9c0.48,0.68,0.31,1.61-0.37,2.09
			C2158.83,2637.09,2158.53,2637.18,2158.23,2637.18z M2001.94,2191.52c-0.1,0-0.2-0.01-0.31-0.03
			c-28.12-5.81-72.28-22.31-122.98-67.93c-30.28-27.25-48.82-52.37-49-52.62c-0.49-0.67-0.35-1.61,0.32-2.1
			c0.67-0.49,1.61-0.35,2.1,0.32c0.18,0.25,18.57,25.16,48.64,52.21c27.7,24.91,71.27,56.79,121.53,67.17
			c0.81,0.17,1.33,0.96,1.17,1.77C2003.27,2191.03,2002.64,2191.52,2001.94,2191.52z"/>
		<path class="st16" d="M1557.99,2619.99c-0.28,0-0.55-0.08-0.79-0.23l-268.34-167.74c-0.7-0.44-0.92-1.36-0.48-2.07
			c0.44-0.7,1.36-0.92,2.07-0.48l267.69,167.33l230.64-96.12c0.76-0.32,1.64,0.04,1.96,0.81c0.32,0.76-0.04,1.64-0.81,1.96
			l-231.36,96.42C1558.38,2619.95,1558.18,2619.99,1557.99,2619.99z M1524.81,2493.62c-0.8,0-1.47-0.63-1.5-1.44l-3.24-81.5
			c-0.03-0.83,0.61-1.53,1.44-1.56c0.83-0.06,1.53,0.61,1.56,1.44l3.24,81.5c0.03,0.83-0.61,1.53-1.44,1.56
			C1524.85,2493.62,1524.83,2493.62,1524.81,2493.62z"/>
		<path class="st17" d="M1049.58,1715.96c0,0,61.26-60.55,153.24-40.96c91.98,19.59,133.87,104.58,129.06,238.58
			c-4.81,134-2.8,178.49-0.09,259.43c2.71,80.94,23.25,242.26,23.25,242.26l-153.45-46.62l-18.2-53.2l-172.17-73.93l8.85,218.35
			l-195.7,21.13c0,0,9.66-483.08,69.68-610.04C954.06,1744,978.92,1723.72,1049.58,1715.96L1049.58,1715.96z"/>
		<path class="st8" d="M1030.98,1911.88c0,0-48.52-37.34-72.86,4.82c-24.34,42.16,59.35,104.01,59.35,104.01l-4.77,223.49
			c49.4,49.33,107.44,68.59,170.43,70.64l9.51-181.05c0,0,95.98,31.14,104.96-40.27c4.91-39.06,6.03-113.53,9.05-202.29
			c3.1-91.01-36.13-164.24-137.25-98.09c-38.11,24.93-77.8-24.62-90.95,72.88C1072.54,1909.84,1030.98,1911.88,1030.98,1911.88
			L1030.98,1911.88z"/>
		<path d="M997.06,1958.64c-0.54,0-1.06-0.29-1.33-0.8c-8.34-15.78-3.62-29.13-0.93-34.54c-9.42,1.36-17.58,8.84-17.68,8.93
			c-0.61,0.56-1.56,0.53-2.12-0.08c-0.56-0.61-0.53-1.56,0.08-2.12c0.52-0.49,12.99-11.9,26.04-9.65
			c6.9,1.19,12.58,5.96,16.88,14.17c0.38,0.73,0.1,1.64-0.63,2.02c-0.73,0.38-1.64,0.1-2.02-0.63c-3.85-7.35-8.8-11.59-14.73-12.61
			c-0.77-0.13-1.54-0.21-2.3-0.23c-1.85,3.16-8.69,16.76,0.07,33.34c0.39,0.73,0.11,1.64-0.62,2.03
			C997.54,1958.59,997.3,1958.64,997.06,1958.64z"/>
		<path class="st12" d="M1148.25,1879.33c-0.35,4.38,17.13,7.11,36.63,4.1c20.98-3.24,30.6-2.87,30.42-11.46
			c-0.18-8.59-24.32-8.21-39.76-5.41C1162.07,1869.01,1148.62,1874.71,1148.25,1879.33L1148.25,1879.33z"/>
		<path d="M1197.65,2071.03c-0.01,0-0.01,0-0.02,0c-10.6-0.13-28.19-12.56-28.93-13.08c-0.67-0.48-0.83-1.42-0.35-2.09
			c0.48-0.67,1.42-0.83,2.09-0.35c0.17,0.12,17.57,12.41,27.23,12.53c0.83,0.01,1.49,0.69,1.48,1.52
			C1199.14,2070.37,1198.47,2071.03,1197.65,2071.03z M1223.52,2021.57c-0.59,0-1.15-0.35-1.39-0.93c-0.32-0.77,0.05-1.64,0.81-1.96
			l19.91-8.23l3.26-77.3c0.03-0.83,0.73-1.47,1.56-1.44c0.83,0.04,1.47,0.73,1.43,1.56l-3.3,78.26c-0.02,0.58-0.39,1.1-0.93,1.32
			l-20.79,8.59C1223.9,2021.53,1223.71,2021.57,1223.52,2021.57z M1179.39,1937.48c-14.87,0-28.05-14.02-28.66-14.68
			c-0.56-0.61-0.53-1.56,0.08-2.12c0.61-0.56,1.56-0.53,2.12,0.08c0.15,0.17,15.49,16.44,30.46,13.31
			c15.16-3.18,21.53-14.31,21.59-14.42c0.4-0.72,1.32-0.99,2.04-0.58c0.72,0.4,0.98,1.32,0.58,2.04c-0.28,0.51-7.1,12.44-23.59,15.9
			C1182.46,1937.33,1180.92,1937.48,1179.39,1937.48z M1293.08,1927.83c-14.39,0-23.74-13.22-23.86-13.39
			c-0.47-0.68-0.3-1.61,0.38-2.08c0.68-0.47,1.62-0.3,2.09,0.38c0.55,0.79,13.63,19.2,32.55,9.1c0.73-0.39,1.64-0.11,2.03,0.62
			c0.39,0.73,0.11,1.64-0.62,2.03C1301.15,1926.88,1296.93,1927.83,1293.08,1927.83z"/>
		<path class="st12" d="M1306.38,1884.72c-4.43-0.09-9.25-0.48-14.19-1.25c-20.98-3.24-30.6-2.86-30.42-11.45
			c0.17-8.59,24.32-8.21,39.76-5.41c1.22,0.22,2.44,0.47,3.64,0.74L1306.38,1884.72L1306.38,1884.72z"/>
		<path class="st10" d="M1133.91,2112.23c0,0,41.12,20.41,57.27,21.02l-2.37,43.04L1133.91,2112.23L1133.91,2112.23z"/>
		<path class="st8" d="M1913.65,1992.55c14.33-30.31,188.66-177.61,213.06-146.08c38.84,50.19,149.45,16.16,96.19,79.48
			c-42.48,50.49-160.45,159.81-160.45,159.81L1913.65,1992.55L1913.65,1992.55z"/>
		<path d="M2122.78,1945.43c-14.56,0-24.9-2.85-27.52-10.16c-4.81-13.42-1.37-32.88,10.22-57.85c8.56-18.43,18.64-33.21,18.74-33.36
			c0.47-0.68,1.4-0.86,2.09-0.39c0.68,0.47,0.86,1.4,0.39,2.08c-0.4,0.58-39.49,58.15-28.61,88.5c4.72,13.18,46.23,10.4,113.89-7.64
			c0.8-0.21,1.62,0.26,1.84,1.06c0.21,0.8-0.26,1.62-1.06,1.84C2181.82,1937.76,2146.65,1945.43,2122.78,1945.43z"/>
		<path d="M2096.67,1936.27c-0.28,0-0.56-0.08-0.81-0.24c-0.69-0.45-0.89-1.38-0.44-2.07l56.21-86.73c0.45-0.7,1.38-0.89,2.07-0.44
			c0.69,0.45,0.89,1.38,0.44,2.07l-56.21,86.73C2097.64,1936.03,2097.16,1936.27,2096.67,1936.27z"/>
		<path d="M2131.83,1943.26c-0.27,0-0.54-0.07-0.78-0.22c-0.71-0.43-0.93-1.36-0.5-2.06l54.11-88.55c0.43-0.71,1.35-0.93,2.06-0.5
			c0.71,0.43,0.93,1.36,0.5,2.06l-54.11,88.55C2132.82,1943,2132.33,1943.26,2131.83,1943.26z"/>
		<path d="M2180.31,1935.86c-0.28,0-0.56-0.08-0.81-0.24c-0.7-0.45-0.9-1.38-0.45-2.07l45.65-70.88c0.45-0.7,1.38-0.9,2.07-0.45
			c0.7,0.45,0.9,1.38,0.45,2.07l-45.65,70.88C2181.28,1935.62,2180.8,1935.86,2180.31,1935.86z"/>
		<path class="st10" d="M1147.96,1971.39c18.73,8.17,29.64,24.66,24.35,36.78c-5.29,12.13-24.8,15.33-43.53,7.16
			c-18.73-8.18-29.64-24.66-24.35-36.78C1109.72,1966.42,1129.23,1963.21,1147.96,1971.39L1147.96,1971.39z"/>
		<path class="st10" d="M1302.77,1967.33c0,7.88-0.1,25.11-0.87,35.98c-0.48,6.87-0.95,12.32-1.3,16.18
			c-7.84,0.49-14.65-1.81-18.58-7.03c-7.96-10.57-1.16-29.13,15.17-41.42C1299.02,1969.66,1300.89,1968.43,1302.77,1967.33
			L1302.77,1967.33z"/>
		<path class="st16" d="M1564.95,2907.36c-0.11,0-0.23-0.01-0.35-0.04c-193.34-45.61-375.45-152.71-543.45-261.65
			c-0.7-0.45-0.89-1.38-0.44-2.08c0.45-0.69,1.38-0.89,2.07-0.44c167.77,108.79,349.61,215.74,542.51,261.25
			c0.81,0.19,1.31,1,1.12,1.8C1566.24,2906.9,1565.63,2907.36,1564.95,2907.36z"/>
		<path class="st18" d="M2371.8,2562.39c-53.35-77.06-105.08-144.17-84.95-248.43c7.99-41.39,79.01-91.07,106.64-81.58
			c12.14,4.17,18.75-10.21,34.23,14.95c30.24,49.14,64.7,109.81,64.7,109.81c16.39-115.96,28.96-109.67,36.25,65.28l331.27,320.44
			l186.54-98.21l142.5,255.03c0,0-37.63,22.16-88.24,49.61c-87.31,47.35-213.27,110.45-251.51,102.79
			C2788.84,3039.99,2459.94,2689.7,2371.8,2562.39L2371.8,2562.39z"/>
		<path class="st8" d="M2191.22,2385.65l94.08-56.28c11.1-70.64,49.66-96.42,61.27-91.93c15.12,5.85,14.96,25.11,14.96,25.11
			s163.64-70.88,129.9,97.36c-48.23,101.31-138.32,134.71-234.63,191.56L2191.22,2385.65L2191.22,2385.65z"/>
		<path d="M2387.81,2286.76c-0.61,0-1.19-0.38-1.41-0.98c-0.29-0.78,0.11-1.64,0.89-1.92l74.76-27.45c0.77-0.29,1.64,0.11,1.92,0.89
			c0.29,0.78-0.11,1.64-0.89,1.92l-74.76,27.45C2388.16,2286.73,2387.99,2286.76,2387.81,2286.76z"/>
		<path d="M2416.87,2317.11c-0.6,0-1.17-0.37-1.4-0.96c-0.3-0.77,0.09-1.64,0.86-1.94l73.03-28.07c0.77-0.29,1.64,0.09,1.94,0.86
			c0.3,0.77-0.09,1.64-0.86,1.94l-73.03,28.07C2417.23,2317.08,2417.04,2317.11,2416.87,2317.11z"/>
		<path d="M2442.21,2349.62c-0.61,0-1.18-0.38-1.41-0.98c-0.29-0.78,0.11-1.64,0.89-1.93l50.91-18.74c0.78-0.29,1.64,0.11,1.93,0.89
			c0.29,0.78-0.11,1.64-0.89,1.93l-50.91,18.74C2442.56,2349.59,2442.38,2349.62,2442.21,2349.62z"/>
		<path d="M2038.58,1983.9c-51.09,0-111.23-7.62-111.91-7.71c-0.82-0.11-1.4-0.86-1.3-1.68c0.1-0.82,0.86-1.4,1.68-1.3
			c0.77,0.1,77.49,9.82,131.01,7.25c73.18-3.51,166.05-58.41,166.98-58.96c0.71-0.42,1.63-0.19,2.06,0.52
			c0.42,0.71,0.19,1.63-0.52,2.06c-0.94,0.56-94.45,55.83-168.37,59.38C2051.93,1983.76,2045.33,1983.9,2038.58,1983.9z"/>
		<path d="M2855.87,2820.57c-0.03,0-0.05,0-0.08,0c-0.83-0.04-1.46-0.75-1.42-1.58l4.09-76.21c0.04-0.83,0.74-1.46,1.58-1.42
			c0.83,0.04,1.46,0.75,1.42,1.58l-4.09,76.21C2857.33,2819.95,2856.66,2820.57,2855.87,2820.57z"/>
	</g>
	<g id="right_top">
		<g>
			<path class="st19" d="M2888.54,1149.48c0,0-206.43,30.02-245.33,82.89s-217.44,373.24-210.38,459.97
				c10.97,134.77,218.07,383.41,218.07,383.41l139.24-135.13l-80.36-155.66l1001.81-5.66l-116.65-370.81l-120.04,35.25
				c0,0-146.32-223.84-180.65-253.78c-34.34-29.95-235.96-50.36-235.96-50.36L2888.54,1149.48L2888.54,1149.48z"/>
			<g>
				<g>
					<path class="st12" d="M2697.7,1250.26c6.58,0,11.93,5.46,11.93,12.18c0,6.72-5.35,12.18-11.93,12.18
						c-6.59,0-11.93-5.46-11.93-12.18C2685.77,1255.71,2691.12,1250.26,2697.7,1250.26L2697.7,1250.26z"/>
				</g>
				<g>
					<path class="st12" d="M2762.73,1423.57c6.58,0,11.93,5.46,11.93,12.18c0,6.72-5.35,12.18-11.93,12.18
						c-6.59,0-11.93-5.46-11.93-12.18C2750.8,1429.03,2756.15,1423.57,2762.73,1423.57L2762.73,1423.57z"/>
				</g>
				<g>
					<path class="st12" d="M2878.73,1344.22c6.59,0,11.93,5.46,11.93,12.18c0,6.72-5.35,12.18-11.93,12.18s-11.93-5.46-11.93-12.18
						C2866.8,1349.68,2872.15,1344.22,2878.73,1344.22L2878.73,1344.22z"/>
				</g>
				<g>
					<path class="st12" d="M3069.93,1200.86c6.58,0,11.93,5.46,11.93,12.18c0,6.72-5.35,12.18-11.93,12.18s-11.93-5.46-11.93-12.18
						C3058,1206.32,3063.35,1200.86,3069.93,1200.86L3069.93,1200.86z"/>
				</g>
				<g>
					<path class="st12" d="M3229.35,1201.53c6.59,0,11.93,5.46,11.93,12.18c0,6.72-5.35,12.18-11.93,12.18
						c-6.58,0-11.93-5.46-11.93-12.18C3217.42,1206.99,3222.77,1201.53,3229.35,1201.53L3229.35,1201.53z"/>
				</g>
				<g>
					<path class="st12" d="M3049.59,1323.14c6.58,0,11.93,5.46,11.93,12.18c0,6.72-5.35,12.18-11.93,12.18s-11.93-5.46-11.93-12.18
						C3037.66,1328.59,3043.01,1323.14,3049.59,1323.14L3049.59,1323.14z"/>
				</g>
				<g>
					<path class="st12" d="M3143.21,1427.83c6.58,0,11.93,5.46,11.93,12.18c0,6.72-5.35,12.18-11.93,12.18s-11.93-5.46-11.93-12.18
						C3131.28,1433.29,3136.63,1427.83,3143.21,1427.83L3143.21,1427.83z"/>
				</g>
				<g>
					<path class="st12" d="M3086.5,1572.23c6.58,0,11.93,5.46,11.93,12.18c0,6.72-5.35,12.18-11.93,12.18
						c-6.59,0-11.93-5.46-11.93-12.18C3074.57,1577.68,3079.92,1572.23,3086.5,1572.23L3086.5,1572.23z"/>
				</g>
				<g>
					<path class="st12" d="M3007.25,1695.82c6.58,0,11.93,5.46,11.93,12.18c0,6.72-5.35,12.18-11.93,12.18s-11.93-5.46-11.93-12.18
						C2995.32,1701.28,3000.66,1695.82,3007.25,1695.82L3007.25,1695.82z"/>
				</g>
				<g>
					<path class="st12" d="M3060.13,1761.57c6.59,0,11.93,5.46,11.93,12.18c0,6.72-5.35,12.18-11.93,12.18
						c-6.58,0-11.93-5.46-11.93-12.18C3048.2,1767.03,3053.55,1761.57,3060.13,1761.57L3060.13,1761.57z"/>
				</g>
				<g>
					<path class="st12" d="M2948,1615.9c6.58,0,11.93,5.46,11.93,12.18c0,6.72-5.35,12.18-11.93,12.18
						c-6.59,0-11.93-5.46-11.93-12.18C2936.07,1621.36,2941.42,1615.9,2948,1615.9L2948,1615.9z"/>
				</g>
				<g>
					<path class="st12" d="M2901.31,1735.31c6.58,0,11.93,5.46,11.93,12.18c0,6.72-5.35,12.18-11.93,12.18s-11.93-5.46-11.93-12.18
						C2889.38,1740.76,2894.73,1735.31,2901.31,1735.31L2901.31,1735.31z"/>
				</g>
				<g>
					<path class="st12" d="M2879.51,1468.01c6.58,0,11.93,5.46,11.93,12.18c0,6.72-5.35,12.18-11.93,12.18
						c-6.59,0-11.93-5.46-11.93-12.18C2867.58,1473.46,2872.93,1468.01,2879.51,1468.01L2879.51,1468.01z"/>
				</g>
				<g>
					<path class="st12" d="M3006.44,1550.21c6.58,0,11.93,5.46,11.93,12.18c0,6.72-5.35,12.18-11.93,12.18s-11.93-5.46-11.93-12.18
						C2994.51,1555.66,2999.86,1550.21,3006.44,1550.21L3006.44,1550.21z"/>
				</g>
				<g>
					<path class="st12" d="M2645.34,1369.35c6.59,0,11.93,5.46,11.93,12.18c0,6.72-5.35,12.18-11.93,12.18
						c-6.59,0-11.93-5.46-11.93-12.18C2633.41,1374.8,2638.75,1369.35,2645.34,1369.35L2645.34,1369.35z"/>
				</g>
				<g>
					<path class="st12" d="M2760.31,1725.79c6.58,0,11.93,5.46,11.93,12.18c0,6.72-5.35,12.18-11.93,12.18
						c-6.59,0-11.93-5.46-11.93-12.18C2748.38,1731.25,2753.72,1725.79,2760.31,1725.79L2760.31,1725.79z"/>
				</g>
				<g>
					<path class="st12" d="M2837.92,1640.86c6.58,0,11.93,5.46,11.93,12.18c0,6.72-5.35,12.18-11.93,12.18
						c-6.58,0-11.93-5.46-11.93-12.18C2825.98,1646.32,2831.33,1640.86,2837.92,1640.86L2837.92,1640.86z"/>
				</g>
				<g>
					<path class="st12" d="M2699.06,1665.24c6.59,0,11.93,5.46,11.93,12.18c0,6.72-5.35,12.18-11.93,12.18s-11.93-5.46-11.93-12.18
						C2687.13,1670.69,2692.48,1665.24,2699.06,1665.24L2699.06,1665.24z"/>
				</g>
				<g>
					<path class="st12" d="M2653.76,1576.94c6.58,0,11.93,5.46,11.93,12.18c0,6.72-5.35,12.18-11.93,12.18
						c-6.58,0-11.93-5.46-11.93-12.18C2641.83,1582.4,2647.18,1576.94,2653.76,1576.94L2653.76,1576.94z"/>
				</g>
				<g>
					<path class="st12" d="M2484.49,1608.67c6.59,0,11.93,5.46,11.93,12.18c0,6.72-5.35,12.18-11.93,12.18
						c-6.58,0-11.93-5.46-11.93-12.18C2472.56,1614.13,2477.9,1608.67,2484.49,1608.67L2484.49,1608.67z"/>
				</g>
				<g>
					<path class="st12" d="M2794.9,1288.45c6.59,0,11.93,5.46,11.93,12.18c0,6.72-5.35,12.18-11.93,12.18
						c-6.59,0-11.93-5.46-11.93-12.18C2782.97,1293.91,2788.31,1288.45,2794.9,1288.45L2794.9,1288.45z"/>
				</g>
				<g>
					<path class="st12" d="M2862.29,1180.43c6.58,0,11.93,5.46,11.93,12.18c0,6.72-5.35,12.18-11.93,12.18s-11.93-5.46-11.93-12.18
						C2850.36,1185.88,2855.7,1180.43,2862.29,1180.43L2862.29,1180.43z"/>
				</g>
				<g>
					<path class="st12" d="M2649.97,1757.59c6.58,0,11.93,5.46,11.93,12.18c0,6.72-5.35,12.18-11.93,12.18s-11.93-5.46-11.93-12.18
						C2638.03,1763.05,2643.38,1757.59,2649.97,1757.59L2649.97,1757.59z"/>
				</g>
				<g>
					<path class="st12" d="M2595.42,1867.49c6.58,0,11.93,5.46,11.93,12.18c0,6.72-5.35,12.18-11.93,12.18s-11.93-5.46-11.93-12.18
						C2583.49,1872.94,2588.84,1867.49,2595.42,1867.49L2595.42,1867.49z"/>
				</g>
				<g>
					<path class="st12" d="M2507.44,1779.54c6.58,0,11.93,5.46,11.93,12.18c0,6.72-5.35,12.18-11.93,12.18
						c-6.59,0-11.93-5.46-11.93-12.18C2495.51,1785,2500.86,1779.54,2507.44,1779.54L2507.44,1779.54z"/>
				</g>
				<g>
					<path class="st12" d="M2576.9,1686.71c6.58,0,11.93,5.46,11.93,12.18c0,6.72-5.35,12.18-11.93,12.18
						c-6.59,0-11.93-5.46-11.93-12.18C2564.97,1692.17,2570.32,1686.71,2576.9,1686.71L2576.9,1686.71z"/>
				</g>
				<g>
					<path class="st12" d="M2694.19,1877.15c6.58,0,11.93,5.46,11.93,12.18c0,6.72-5.35,12.18-11.93,12.18s-11.93-5.46-11.93-12.18
						C2682.26,1882.61,2687.61,1877.15,2694.19,1877.15L2694.19,1877.15z"/>
				</g>
				<g>
					<path class="st12" d="M2633.26,1973.2c6.58,0,11.93,5.46,11.93,12.18s-5.35,12.18-11.93,12.18c-6.58,0-11.93-5.46-11.93-12.18
						S2626.67,1973.2,2633.26,1973.2L2633.26,1973.2z"/>
				</g>
				<g>
					<path class="st12" d="M2549.48,1484.86c6.58,0,11.93,5.46,11.93,12.18c0,6.72-5.35,12.18-11.93,12.18s-11.93-5.46-11.93-12.18
						C2537.54,1490.32,2542.89,1484.86,2549.48,1484.86L2549.48,1484.86z"/>
				</g>
				<g>
					<path class="st12" d="M2771.18,1562.12c6.59,0,11.93,5.46,11.93,12.18c0,6.72-5.35,12.18-11.93,12.18
						c-6.58,0-11.93-5.46-11.93-12.18C2759.25,1567.58,2764.6,1562.12,2771.18,1562.12L2771.18,1562.12z"/>
				</g>
				<g>
					<path class="st12" d="M3003.29,1409.14c6.58,0,11.93,5.46,11.93,12.18c0,6.72-5.35,12.18-11.93,12.18
						c-6.59,0-11.93-5.46-11.93-12.18C2991.36,1414.6,2996.7,1409.14,3003.29,1409.14L3003.29,1409.14z"/>
				</g>
				<g>
					<path class="st12" d="M3169.72,1295.21c6.59,0,11.93,5.46,11.93,12.18c0,6.72-5.35,12.18-11.93,12.18
						c-6.59,0-11.93-5.46-11.93-12.18C3157.79,1300.67,3163.14,1295.21,3169.72,1295.21L3169.72,1295.21z"/>
				</g>
			</g>
			<path class="st16" d="M2916.99,1581.87c-2.61,0-4.5-1.73-4.59-1.81c-0.61-0.56-0.64-1.51-0.08-2.12
				c0.57-0.61,1.51-0.64,2.12-0.07c0,0,1.37,1.22,2.98,0.97c1.26-0.2,2.46-1.25,3.55-3.12c1.19-2.04,1.54-3.73,1.04-5.02
				c-0.63-1.65-2.54-2.28-2.56-2.28c-0.79-0.25-1.23-1.09-0.98-1.88c0.25-0.79,1.07-1.23,1.86-0.99c0.13,0.04,3.28,1.03,4.46,4.04
				c0.86,2.19,0.44,4.77-1.24,7.65c-1.58,2.72-3.51,4.26-5.73,4.58C2917.56,1581.85,2917.27,1581.87,2916.99,1581.87z"/>
			<path class="st16" d="M2956.97,1580.17c-0.74,0-1.51-0.11-2.27-0.38c-1.97-0.7-3.43-2.3-4.33-4.76
				c-0.89-2.43-0.84-4.58,0.15-6.39c1.57-2.89,4.95-3.68,5.1-3.72c0.81-0.18,1.61,0.32,1.79,1.13c0.18,0.81-0.32,1.61-1.12,1.79
				c-0.05,0.01-2.24,0.56-3.14,2.24c-0.55,1.02-0.53,2.34,0.04,3.91c0.58,1.57,1.42,2.57,2.51,2.96c2.03,0.73,4.47-0.66,4.49-0.67
				c0.71-0.42,1.63-0.17,2.05,0.54c0.42,0.71,0.18,1.63-0.53,2.05C2961.6,1578.94,2959.48,1580.17,2956.97,1580.17z"/>
			<path class="st16" d="M2712.02,1790.9c-0.53,0-1.04-0.28-1.31-0.77l-59.96-107.79c-0.24-0.42-0.25-0.94-0.04-1.37l88.62-186.44
				c0.36-0.75,1.25-1.06,2-0.71c0.75,0.36,1.07,1.25,0.71,2l-88.29,185.75l59.58,107.12c0.4,0.72,0.14,1.64-0.58,2.04
				C2712.52,1790.84,2712.27,1790.9,2712.02,1790.9z"/>
			<path d="M2602.41,1687.23c-0.77,0-1.43-0.59-1.49-1.38c-0.07-0.83,0.55-1.55,1.37-1.62l49.65-4.12c0.81-0.08,1.55,0.54,1.62,1.37
				c0.07,0.83-0.55,1.55-1.37,1.62l-49.65,4.12C2602.5,1687.23,2602.45,1687.23,2602.41,1687.23z"/>
			<path class="st11" d="M2915,753.66c0,0-49.7-34.85-92.89,41.18c-29.74,52.36-42.92,296.69-42.92,296.69l163.48-9.84l92.17,4.18
				l116.92-23.51c0,0,17.69-161.97-6.19-228.81s-100.9-102.57-147.7-105.83C2951.07,724.45,2915,753.66,2915,753.66L2915,753.66z"/>
			<path d="M2779.2,1093.03c-0.4,0-0.78-0.16-1.06-0.44c-0.3-0.3-0.46-0.72-0.44-1.14c0.03-0.61,3.38-61.89,10.31-128.78
				c9.33-89.95,20.36-146.67,32.8-168.57c15.71-27.65,34.05-44,54.52-48.61c20.19-4.54,35.69,3.9,39.59,6.33
				c5.83-4.38,40.18-28.58,83.04-25.6c25.79,1.8,56.87,12.75,83.14,29.3c22.47,14.15,52.14,39.09,65.87,77.52
				c23.73,66.4,6.45,227.86,6.27,229.48c-0.07,0.65-0.55,1.18-1.2,1.31l-116.92,23.51c-0.12,0.02-0.24,0.03-0.36,0.03l-92.09-4.18
				l-163.4,9.84C2779.26,1093.02,2779.23,1093.03,2779.2,1093.03z M2886.96,747.2c-3.47,0-7.16,0.36-11.02,1.23
				c-19.59,4.43-37.26,20.29-52.52,47.15c-27.95,49.2-41.39,272.65-42.63,294.35l161.79-9.74c0.05,0,0.1,0,0.16,0l91.99,4.17
				l115.66-23.26c1.48-14.32,16.25-164.16-6.23-227.05c-13.45-37.62-42.58-62.09-64.65-75.99c-25.87-16.3-56.43-27.08-81.75-28.84
				c-45.62-3.19-81.46,25.32-81.82,25.61c-0.52,0.42-1.26,0.45-1.8,0.06C2914.01,754.79,2902.9,747.2,2886.96,747.2z"/>
			<path d="M2915.19,791.35c-0.83,0-1.5-0.67-1.5-1.49l-0.19-36.19c0-0.83,0.66-1.5,1.49-1.51c0,0,0,0,0.01,0
				c0.83,0,1.5,0.67,1.5,1.49l0.19,36.19C2916.7,790.67,2916.03,791.35,2915.19,791.35C2915.2,791.35,2915.2,791.35,2915.19,791.35z
				"/>
			<path d="M2807.23,1089.52c-0.82,0-1.49-0.66-1.5-1.48c-0.66-64.94,3.7-124.7,13.32-182.69c0.13-0.82,0.91-1.37,1.72-1.23
				c0.82,0.14,1.37,0.91,1.23,1.73c-9.6,57.82-13.94,117.41-13.28,182.17c0.01,0.83-0.66,1.51-1.48,1.52
				C2807.24,1089.52,2807.23,1089.52,2807.23,1089.52z"/>
			<path d="M2838.45,1089.65c-0.73,0-1.37-0.53-1.48-1.27c-5.14-33.82-3.4-64.89-1.03-90.84c0.08-0.83,0.82-1.44,1.63-1.36
				c0.83,0.08,1.43,0.81,1.36,1.63c-2.36,25.76-4.09,56.61,1,90.11c0.12,0.82-0.44,1.58-1.26,1.71
				C2838.6,1089.64,2838.52,1089.65,2838.45,1089.65z"/>
			<path d="M3076.77,1077.8c-0.12,0-0.23-0.01-0.35-0.04c-0.81-0.19-1.3-1-1.11-1.81c4.56-19.15,5.55-39.84,3.03-63.25
				c-0.09-0.82,0.51-1.56,1.33-1.65c0.83-0.09,1.56,0.51,1.65,1.33c2.55,23.76,1.54,44.78-3.1,64.26
				C3078.06,1077.33,3077.45,1077.8,3076.77,1077.8z"/>
			<path d="M3107.32,1071.03c-0.06,0-0.12,0-0.18-0.01c-0.82-0.1-1.41-0.85-1.31-1.67c4.24-34.87,3.48-61.58-2.9-102.04
				c-0.13-0.82,0.43-1.59,1.25-1.71c0.81-0.13,1.59,0.43,1.71,1.25c6.43,40.77,7.19,67.69,2.92,102.87
				C3108.71,1070.47,3108.07,1071.03,3107.32,1071.03z"/>
			<path d="M3133.54,1066.62c-0.04,0-0.08,0-0.12,0c-0.83-0.07-1.44-0.79-1.37-1.62c3.57-43.54,1.82-97.22-4.92-151.14
				c-0.1-0.82,0.48-1.57,1.3-1.67c0.83-0.1,1.57,0.48,1.67,1.3c6.77,54.12,8.53,108.01,4.94,151.75
				C3134.97,1066.03,3134.31,1066.62,3133.54,1066.62z"/>
			<path class="st8" d="M2856.05,838.01c-4.68,31.22-7.37,117.25-6.17,148.71c1.05,27.4,1.65,82.93,42.27,81.81
				c13.24-0.36,21.72-2.19,21.72-2.19c-0.43,32.98-13.14,58.54-26.54,84.49l59.84,267.58l108.85-275.33c0,0-6.97-60.48-7.24-88.65
				c-0.26-27.48,5.62-80.37,5.62-80.37s61.54-27.45,56.05-60.45c-6.35-38.14-54.09-9.49-54.09-9.49s8.69-55.17-29.43-86.43
				c-43.97-36.05-133.18-31.02-148.98-18.3C2861.02,813.03,2858.24,823.38,2856.05,838.01L2856.05,838.01z"/>
			<path class="st10" d="M2988.53,945.12c13.44-5.27,27.35-1.92,31.04,7.48c3.69,9.4-4.23,21.32-17.67,26.59
				c-13.44,5.27-27.35,1.92-31.04-7.48C2967.18,962.31,2975.09,950.4,2988.53,945.12L2988.53,945.12z"/>
			<path class="st10" d="M2852.68,938.48c6.81-1.98,15.88-0.28,23.88,5.15c11.95,8.11,17.04,21.48,11.37,29.83
				c-5.67,8.36-19.98,8.56-31.93,0.46c-1.57-1.07-3.03-2.23-4.36-3.46L2852.68,938.48L2852.68,938.48z"/>
			<path d="M2933.28,1023.68c-0.46,0-0.73-0.02-0.79-0.03c-0.83-0.08-1.43-0.81-1.35-1.63c0.08-0.82,0.82-1.43,1.63-1.35
				c0.3,0.02,7.04,0.52,13.78-5.83c0.6-0.57,1.55-0.54,2.12,0.06c0.57,0.6,0.54,1.55-0.06,2.12
				C2942.14,1023.11,2935.53,1023.68,2933.28,1023.68z M2936.19,979.58c-0.2,0-0.4-0.04-0.6-0.13l-17.64-7.71
				c-0.58-0.25-0.94-0.85-0.9-1.48l4.95-67.25c0.06-0.83,0.76-1.44,1.61-1.39c0.83,0.06,1.45,0.78,1.39,1.61l-4.88,66.19l16.66,7.28
				c0.76,0.33,1.11,1.22,0.77,1.98C2937.32,979.24,2936.77,979.58,2936.19,979.58z M2978.96,916.63c-8.37,0-13.92-3.19-17.16-5.98
				c-3.81-3.27-5.35-6.69-5.42-6.83c-0.34-0.76,0-1.64,0.76-1.98c0.76-0.34,1.64,0,1.98,0.76c0.23,0.5,5.56,11.88,21.61,10.98
				c14.95-0.85,19.1-10.2,19.27-10.6c0.32-0.76,1.2-1.12,1.96-0.8c0.76,0.32,1.12,1.19,0.81,1.95c-0.2,0.47-4.96,11.48-21.87,12.44
				C2980.23,916.61,2979.59,916.63,2978.96,916.63z M2886.76,916.02c-7.98,0-12.98-3.12-15.8-5.81c-3.24-3.08-4.39-6.27-4.44-6.41
				c-0.28-0.78,0.13-1.64,0.91-1.91c0.78-0.27,1.63,0.13,1.91,0.91l0,0c0.16,0.44,4.03,10.74,18.49,10.19
				c13.97-0.53,17.79-9.06,17.95-9.43c0.33-0.76,1.2-1.11,1.96-0.79c0.76,0.32,1.12,1.19,0.8,1.96c-0.18,0.43-4.63,10.65-20.6,11.26
				C2887.55,916.01,2887.15,916.02,2886.76,916.02z"/>
			<path class="st9" d="M2890.36,1038.04c-0.6,0-1.17-0.37-1.4-0.96c-5.59-14.51,13.67-47.04,14.49-48.42
				c0.42-0.71,1.35-0.94,2.06-0.52c0.71,0.42,0.94,1.35,0.52,2.06c-0.05,0.08-4.95,8.33-9.13,18.15c-5.42,12.74-7.2,22.3-5.14,27.65
				c0.3,0.77-0.09,1.64-0.86,1.94C2890.72,1038,2890.54,1038.04,2890.36,1038.04z M2974.03,1019.27c-0.82,0-1.49-0.66-1.5-1.49
				c-0.13-17-16.05-33.82-16.22-33.98c-0.57-0.6-0.55-1.55,0.04-2.12c0.6-0.57,1.55-0.55,2.12,0.05
				c0.69,0.72,16.91,17.85,17.05,36.04c0.01,0.83-0.66,1.51-1.49,1.51C2974.04,1019.27,2974.03,1019.27,2974.03,1019.27z
				 M2961.09,953.99c-0.3,0-0.6-0.09-0.86-0.27c-10.39-7.27-18.16-24.08-18.49-24.79c-0.34-0.75-0.01-1.64,0.74-1.99
				c0.76-0.34,1.64-0.01,1.99,0.74c0.08,0.17,7.77,16.79,17.48,23.58c0.68,0.48,0.84,1.41,0.37,2.09
				C2962.03,953.76,2961.57,953.99,2961.09,953.99z M2894.39,948.86c-0.51,0-1-0.26-1.28-0.72c-0.43-0.71-0.21-1.63,0.5-2.06
				c0.1-0.06,9.3-5.8,11.72-16.02c0.19-0.81,1-1.31,1.8-1.11c0.81,0.19,1.31,1,1.12,1.81c-2.71,11.48-12.65,17.64-13.08,17.89
				C2894.92,948.79,2894.65,948.86,2894.39,948.86z M3037.69,919.96c-0.19,0-0.39-0.04-0.58-0.12l-15.89-6.64
				c-0.76-0.32-1.12-1.2-0.81-1.96c0.32-0.76,1.2-1.12,1.96-0.81l15.89,6.64c0.76,0.32,1.12,1.2,0.81,1.96
				C3038.83,919.61,3038.28,919.96,3037.69,919.96z M3021.57,899.83c-0.65,0-1.25-0.43-1.44-1.08c-0.23-0.8,0.23-1.63,1.02-1.86
				l15.79-4.59c0.79-0.23,1.63,0.23,1.86,1.02c0.23,0.8-0.23,1.63-1.02,1.86l-15.79,4.59
				C3021.85,899.81,3021.71,899.83,3021.57,899.83z"/>
			<path class="st10" d="M2915.02,1065.33c9.68-1.62,17.89-2.94,28-6.12l-36.76,55.8C2906.26,1115,2917.03,1084.32,2915.02,1065.33
				L2915.02,1065.33z"/>
			<path d="M3061.27,950.26c-0.69,0-1.3-0.47-1.46-1.17c-0.13-0.57-3.06-14.01,4.67-26.06c5.27-8.23,14.18-13.71,26.47-16.29
				c0.81-0.17,1.61,0.35,1.78,1.16c0.17,0.81-0.35,1.61-1.16,1.78c-8.57,1.8-15.34,5.07-20.24,9.74
				c3.62,1.77,12.59,7.14,12.71,16.98c0.01,0.83-0.65,1.51-1.48,1.52c-0.01,0-0.01,0-0.02,0c-0.82,0-1.49-0.66-1.5-1.48
				c-0.11-8.99-9.79-13.79-11.88-14.71c-0.78,0.93-1.5,1.91-2.16,2.93c-7.06,11-4.3,23.65-4.27,23.77c0.18,0.81-0.32,1.61-1.13,1.79
				C3061.49,950.25,3061.38,950.26,3061.27,950.26z"/>
			<path class="st12" d="M2953.37,868.41c0.38-3.5,47.31-6.9,54.83,7.93c2.49,4.92-10.83,2.81-24.74,1.8
				c-9.16-0.67-29.87,0.57-30.94-2.53C2951.46,872.5,2953.24,869.56,2953.37,868.41L2953.37,868.41z"/>
			<path class="st12" d="M2865.7,868.43c0.37-3.5,45.22-6.9,52.4,7.93c2.38,4.92-10.35,2.81-23.65,1.8
				c-8.75-0.67-28.55,0.57-29.56-2.53C2863.87,872.51,2865.58,869.58,2865.7,868.43L2865.7,868.43z"/>
			<g>
				<path class="st16" d="M3001.17,1613.88c-12.38,0-25.06-10.7-37.73-31.87c-8.65-14.46-14.58-29.52-16.15-33.66l-9.57,1.02
					c-0.15,0.02-0.31,0.01-0.46-0.02l-7.44-1.5c-3.8,8.8-28.05,62.18-57.77,64.11c-17.87,1.15-33.8-12.4-46.07-39.21
					c-9.14-19.95-13.16-40.52-13.19-40.72c-0.02-0.12-0.03-0.23-0.03-0.35l16.49-368.31c0.04-0.83,0.71-1.47,1.57-1.43
					c0.83,0.04,1.47,0.74,1.43,1.57l-16.48,368.12c0.83,4.13,16.72,79.9,56.1,77.34c29.87-1.93,55.42-62.79,55.68-63.4
					c0.27-0.66,0.98-1.04,1.68-0.9l8.41,1.7l10.5-1.12c0.7-0.07,1.34,0.33,1.57,0.99c0.25,0.69,25.12,69,54.33,64.43
					c21.82-3.41,36.72-21.48,45.38-36.03c9.12-15.32,13.43-30.1,13.79-31.34l59.01-395.24c0.12-0.82,0.89-1.39,1.71-1.26
					c0.82,0.12,1.38,0.89,1.26,1.71l-59.02,395.34c-0.01,0.06-0.02,0.12-0.04,0.18c-0.04,0.16-4.42,15.82-14.09,32.1
					c-12.9,21.71-29.33,34.68-47.53,37.52C3003.39,1613.79,3002.28,1613.88,3001.17,1613.88z"/>
				<path class="st16" d="M2937,1549.44c-0.13,0-0.26-0.02-0.38-0.05c-8.14-2.16-16.22-4.44-24.03-6.64
					c-39.86-11.26-74.28-20.98-97.68-9.66c-0.75,0.36-1.64,0.05-2-0.7s-0.05-1.64,0.7-2c24.42-11.81,59.35-1.95,99.8,9.48
					c7.71,2.18,15.68,4.43,23.7,6.55c11.82-1.52,22.93-3.14,33.69-4.71c44.04-6.42,75.85-11.07,94.6-0.12
					c0.72,0.42,0.96,1.34,0.54,2.05c-0.42,0.71-1.34,0.96-2.05,0.54c-17.84-10.41-50.86-5.6-92.65,0.5
					c-10.86,1.58-22.08,3.22-34.03,4.75C2937.13,1549.43,2937.06,1549.44,2937,1549.44z"/>
				<path class="st16" d="M3065.11,1538.87c-0.17,0-0.34-0.03-0.51-0.09c-0.95-0.34-63.79-23-116.41-39.9
					c-8.67,1.57-18.25,3.39-28.84,5.5c-51.72,10.31-102.75,22.62-103.26,22.74c-0.8,0.2-1.62-0.3-1.81-1.11
					c-0.19-0.81,0.3-1.62,1.11-1.81c0.51-0.12,51.59-12.44,103.37-22.76c8.41-1.68,16.18-3.17,23.37-4.5
					c-24.12-7.65-45.41-13.82-56.55-15.65c-17.58-2.89-34.6,20.19-39.4,27.33c-0.46,0.69-1.4,0.87-2.08,0.41
					c-0.69-0.46-0.87-1.39-0.41-2.08c6.48-9.64,23.57-31.72,42.38-28.62c12.08,1.98,35.89,8.99,62.33,17.47
					c77.12-13.9,81.84-7.53,83.5-5.28c11.31,15.27,10.03,31.88,9.96,32.58c-0.07,0.83-0.81,1.44-1.62,1.37
					c-0.83-0.07-1.44-0.8-1.37-1.62c0.01-0.16,1.22-16.2-9.39-30.54c-1.65-2.22-12.62-5.49-75,5.46
					c51.54,16.71,110.23,37.86,111.15,38.19c0.78,0.28,1.18,1.14,0.9,1.92C3066.3,1538.49,3065.72,1538.87,3065.11,1538.87z"/>
			</g>
		</g>
		<g>
			<path class="st20" d="M3395.21,727.66c0,0-67.49-58.18-39.32-109.59c28.17-51.42,180.74-44.88,234.15-51.92
				c53.41-7.04,74.08,25.91,74.08,25.91s46.33,33.08,54.66,81.83c8.32,48.75-23.22,130.98-23.22,130.98L3395.21,727.66
				L3395.21,727.66z"/>
			<path class="st0" d="M3553.38,1046.31c0,0-175.85,44.05-224.12,87.07c-48.27,43.03-98.01,158.89-155.89,266.45
				c-57.88,107.56-136.89,382.75-136.89,382.75l240.84-2.82l798.36,2.92l-3.77-802.05l-308.1,14.39L3553.38,1046.31L3553.38,1046.31
				z"/>
			<g>
				<g>
					<path class="st12" d="M3655.34,1151.9c4.29,0,7.77,3.46,7.77,7.72s-3.48,7.72-7.77,7.72c-4.29,0-7.77-3.46-7.77-7.72
						S3651.06,1151.9,3655.34,1151.9L3655.34,1151.9z"/>
				</g>
				<g>
					<path class="st12" d="M3657.03,1282.67c4.29,0,7.77,3.46,7.77,7.72c0,4.26-3.48,7.72-7.77,7.72c-4.29,0-7.77-3.46-7.77-7.72
						C3649.26,1286.13,3652.74,1282.67,3657.03,1282.67L3657.03,1282.67z"/>
				</g>
				<g>
					<path class="st12" d="M3656.58,1408.35c4.29,0,7.77,3.46,7.77,7.72c0,4.26-3.48,7.72-7.77,7.72c-4.29,0-7.77-3.46-7.77-7.72
						C3648.81,1411.81,3652.29,1408.35,3656.58,1408.35L3656.58,1408.35z"/>
				</g>
				<g>
					<path class="st12" d="M3657.48,1523.04c4.29,0,7.77,3.46,7.77,7.72c0,4.26-3.48,7.72-7.77,7.72c-4.29,0-7.77-3.46-7.77-7.72
						C3649.71,1526.5,3653.19,1523.04,3657.48,1523.04L3657.48,1523.04z"/>
				</g>
				<g>
					<path class="st12" d="M3657.54,1645.32c4.29,0,7.77,3.46,7.77,7.72s-3.48,7.72-7.77,7.72c-4.29,0-7.77-3.46-7.77-7.72
						S3653.25,1645.32,3657.54,1645.32L3657.54,1645.32z"/>
				</g>
				<g>
					<path class="st12" d="M3659.45,1752.6c4.29,0,7.77,3.46,7.77,7.72c0,4.26-3.48,7.72-7.77,7.72c-4.29,0-7.77-3.46-7.77-7.72
						C3651.68,1756.06,3655.16,1752.6,3659.45,1752.6L3659.45,1752.6z"/>
				</g>
			</g>
			<path d="M3280.7,1779.23c-0.18,0-0.36-0.03-0.54-0.1c-0.77-0.3-1.16-1.17-0.86-1.94l142.36-366.59c0.3-0.77,1.17-1.16,1.94-0.86
				c0.77,0.3,1.16,1.17,0.86,1.94l-142.36,366.59C3281.87,1778.87,3281.3,1779.23,3280.7,1779.23z M3940.09,1422.5
				c-13.53,0-26.19-7.44-37.67-22.14c-9.52-12.19-18.26-29.43-25.99-51.22c-13.11-36.98-18.86-74.88-18.92-75.26
				c-0.06-0.43,0.06-0.87,0.35-1.2c0.28-0.33,0.7-0.52,1.13-0.52l165.41-0.17c0,0,0,0,0,0c0.44,0,0.86,0.19,1.14,0.53
				c0.29,0.34,0.41,0.78,0.34,1.21c-0.06,0.36-6.07,36.55-19.18,72.69c-17.77,48.96-39.44,74.53-64.41,76
				C3941.55,1422.48,3940.82,1422.5,3940.09,1422.5z M3866,1301.46c9.85,43.11,33.55,120.54,76.11,117.98
				c16.27-0.96,40.2-14.59,61.77-74.03c5.77-15.91,10.16-31.83,13.26-44.65L3866,1301.46z M3860.76,1275.16
				c0.58,3.5,2.07,12.03,4.57,23.3l152.53-0.7c2.58-10.98,4.15-19.31,4.76-22.76L3860.76,1275.16z M3605.09,1218.1
				c-0.41,0-0.81-0.17-1.09-0.47l-135.84-144.85c-0.57-0.6-0.54-1.55,0.07-2.12c0.6-0.57,1.55-0.54,2.12,0.07l134.1,143
				l34.58-106.66c0.17-0.54,0.63-0.93,1.19-1.02c0.57-0.09,1.12,0.14,1.45,0.6l77.57,107.14c8.91-13.26,65.06-97.08,93.97-145.08
				c24.73-41.06,28.76-67.44,27.43-75.66c-0.13-0.82,0.42-1.59,1.24-1.72c0.82-0.14,1.58,0.41,1.72,1.23
				c0.17,1.01,3.79,25.23-27.82,77.7c-31.34,52.03-94.62,146.05-95.25,146.99c-0.27,0.41-0.73,0.65-1.22,0.66
				c-0.49-0.01-0.95-0.22-1.24-0.62l-77.1-106.49l-34.45,106.27c-0.16,0.5-0.58,0.89-1.1,1
				C3605.31,1218.09,3605.2,1218.1,3605.09,1218.1z"/>
			<path class="st12" d="M4001.17,1072.59l71.66,1.01l0.01,3l-71.68-1.01l-0.18,118.26l72.41,0.1l0.01,3l-72.43-0.1l-0.18,117.04
				l73.16,0.55l0.01,3l-73.18-0.55l-0.18,116.47l73.91,0l0.01,3l-73.93,0l-0.17,113.02l74.63-0.02l0.01,3l-74.65,0.02l-0.18,119.95
				l75.4,0.21l0.01,3l-75.42-0.21l-0.16,106.04l-3-0.02l0.16-106.03l-113.55-0.32l0.15,105.72l-3-0.02l-0.15-105.71l-118.27-0.33
				l-0.05,105.39l-3-0.02l0.05-105.38l-114.69-0.32l0.66,105.07l-3-0.02l-0.66-105.07l-124.43-0.35l0.08,104.72l-3-0.02
				l-0.08-104.72l-112.49-0.32l0.69,104.41l-3-0.02l-0.69-104.4l-119.28-0.33l0.31,104.08l-3-0.02l-0.31-104.07l-115.31-0.32
				l-0.48,106.43l-3,0.06l0.48-106.5l-88.09-0.25c0.32-1,0.63-2,0.95-3l87.15,0.24l0.53-117.37l-48.49,0.01c0.35-1,0.71-2,1.07-3
				l47.44-0.01l0.51-113.19h-3.61c0.45-1.01,0.9-2.01,1.35-3h2.28l0.02-5.05c1.01-2.2,2.02-4.37,3.03-6.5l-0.05,11.55l113.51-0.01
				l-0.36-121.99l-56.06-0.42l1.51-2.97l0.01-0.02l54.53,0.41l-0.3-102.23c1-1.7,1.99-3.39,2.98-5.05l0.32,107.31l117.94,0.89
				l-0.75-113.34l-114.32-0.16c0.61-1,1.22-2,1.83-3l112.47,0.16l-0.64-96.45c0.99-0.41,1.99-0.82,2.99-1.23l0.65,97.69l115.31,0.16
				l-0.1-124.44l-39.45-0.56c3.11-0.98,6.18-1.94,9.21-2.87l30.24,0.43l-0.01-9.41c1.01-0.29,2.01-0.58,3-0.86l0.01,10.31
				l121.11,1.71l-0.27-42.48l3-0.73l0.27,43.25l118.78,1.67l0.04-73.95l3-0.73l-0.04,74.72l117.13,1.65l-0.11-82.14l3-0.14
				l0.11,82.33l115.33,1.63l0.14-89.35l3-0.14L4001.17,1072.59L4001.17,1072.59z M3883.51,1552.41l0.17,119.59l113.56,0.32
				l0.18-119.94L3883.51,1552.41L3883.51,1552.41z M3762.47,1552.44l-0.06,119.22l118.27,0.33l-0.17-119.58L3762.47,1552.44
				L3762.47,1552.44z M3643.96,1552.47l0.74,118.86l114.71,0.32l0.06-119.21L3643.96,1552.47L3643.96,1552.47z M3517.2,1552.51
				l0.09,118.47l124.41,0.35l-0.74-118.85L3517.2,1552.51L3517.2,1552.51z M3401,1552.54l0.79,118.12l112.51,0.32l-0.09-118.46
				L3401,1552.54L3401,1552.54z M3279.16,1552.57l0.35,117.74l119.27,0.33l-0.79-118.11L3279.16,1552.57L3279.16,1552.57z
				 M3161.76,1552.6l-0.53,117.38l115.29,0.32l-0.35-117.73L3161.76,1552.6L3161.76,1552.6z M3162.28,1436.41l-0.51,113.19
				l114.38-0.03l-0.34-113.17L3162.28,1436.41L3162.28,1436.41z M3278.82,1436.4l0.34,113.16l118.83-0.03l-0.75-113.14
				L3278.82,1436.4L3278.82,1436.4z M3400.23,1436.4l0.75,113.14l113.22-0.03l-0.09-113.12L3400.23,1436.4L3400.23,1436.4z
				 M3517.11,1436.39l0.09,113.12l123.75-0.03l-0.71-113.09L3517.11,1436.39L3517.11,1436.39z M3643.24,1436.38l0.71,113.09
				l115.53-0.03l0.05-113.07L3643.24,1436.38L3643.24,1436.38z M3762.53,1436.38l-0.05,113.07l118.03-0.03l-0.16-113.04
				L3762.53,1436.38L3762.53,1436.38z M3883.35,1436.37l0.16,113.04l113.93-0.03l0.17-113.02L3883.35,1436.37L3883.35,1436.37z
				 M3278.81,1433.4l118.4-0.01l-0.81-121.07l-117.96-0.89L3278.81,1433.4L3278.81,1433.4z M3400.21,1433.4l113.9-0.01l-0.1-120.17
				l-114.61-0.87L3400.21,1433.4L3400.21,1433.4z M3517.1,1433.39l123.11-0.01l-0.75-119.22l-122.46-0.92L3517.1,1433.39
				L3517.1,1433.39z M3643.22,1433.38l116.31-0.01l0.06-118.3l-117.12-0.89L3643.22,1433.38L3643.22,1433.38z M3762.53,1433.38
				l117.81-0.01l-0.16-117.39l-117.59-0.89L3762.53,1433.38L3762.53,1433.38z M3883.34,1433.37l114.27-0.01l0.18-116.49
				l-114.61-0.87L3883.34,1433.37L3883.34,1433.37z M3883.18,1313.01l114.62,0.87l0.18-117.02l-114.96-0.16L3883.18,1313.01
				L3883.18,1313.01z M3762.59,1312.09l117.59,0.89l-0.16-116.3l-117.37-0.17L3762.59,1312.09L3762.59,1312.09z M3642.45,1311.19
				l117.14,0.89l0.06-115.56l-117.91-0.17L3642.45,1311.19L3642.45,1311.19z M3517.01,1310.24l122.45,0.92l-0.72-114.83
				l-121.82-0.17L3517.01,1310.24L3517.01,1310.24z M3399.38,1309.35l114.62,0.87l-0.09-114.06l-115.29-0.16L3399.38,1309.35
				L3399.38,1309.35z M3883.01,1193.68l114.97,0.16l0.18-118.3l-115.32-1.63L3883.01,1193.68L3883.01,1193.68z M3762.65,1193.51
				l117.36,0.17l-0.17-119.8l-117.13-1.65L3762.65,1193.51L3762.65,1193.51z M3641.72,1193.34l117.93,0.17l0.06-121.32l-118.76-1.68
				L3641.72,1193.34L3641.72,1193.34z M3516.91,1193.16l121.8,0.17l-0.77-122.86l-121.13-1.71L3516.91,1193.16L3516.91,1193.16z"/>
			<path class="st18" d="M3395.6,724.02c0,0,71.9,177.5,82.14,194.97c10.24,17.46,26.33,61.27,74.46,37.24l-0.23,92.85
				c0,0,1.37,59.98,91.68,56.58c90.31-3.4,118.87-107.03,118.87-107.03l-61.05-167.73l-11.09-38.85c0,0,32.26-66.28,4.81-81.81
				c-27.45-15.53-46.56,16.44-46.56,16.44l-36.36-91.16C3612.29,635.51,3412.55,641.57,3395.6,724.02L3395.6,724.02z"/>
			<path class="st20" d="M3458.21,882.8c0,0,74.27-8.78,115.81-39.14c37.58-27.46,61.08-46.36,65.9-62.28
				c5.43-17.93,7.56-54.12,7.56-54.12s27.08,89.82,16.71,116.36c-10.36,26.54-77.84,90.74-77.84,90.74s-38.87,38.48-72.56,31.55
				C3491.97,961.42,3458.21,882.8,3458.21,882.8L3458.21,882.8z"/>
			<path class="st16" d="M3568.74,897.36c-0.47,0-0.94-0.22-1.23-0.64c-0.47-0.68-0.31-1.61,0.37-2.09
				c6.59-4.6,17.58-12.57,19-14.34c0.52-0.65,1.46-0.75,2.11-0.23c0.65,0.52,0.75,1.46,0.23,2.11
				c-2.16,2.69-17.84,13.68-19.62,14.92C3569.33,897.28,3569.03,897.36,3568.74,897.36z M3538.97,845.48
				c-0.14,0-0.29-0.02-0.43-0.06l-22.2-6.64c-0.5-0.15-0.89-0.55-1.02-1.05l-17.7-66.53c-0.21-0.8,0.26-1.62,1.06-1.84
				c0.79-0.21,1.62,0.26,1.83,1.06l17.49,65.72l21.39,6.4c0.79,0.24,1.25,1.07,1.01,1.87
				C3540.22,845.06,3539.62,845.48,3538.97,845.48z M3449.4,795.66c-8.43,0-15.09-3.68-15.44-3.88c-0.72-0.41-0.98-1.32-0.57-2.04
				c0.41-0.72,1.32-0.98,2.04-0.57c0.1,0.06,10.28,5.65,20.71,2.54c6.42-1.91,11.67-6.71,15.61-14.26c0.38-0.73,1.29-1.02,2.02-0.64
				c0.73,0.38,1.02,1.29,0.64,2.02c-4.34,8.31-10.2,13.61-17.44,15.75C3454.37,795.36,3451.81,795.66,3449.4,795.66z
				 M3665.29,761.56c-0.66,0-1.26-0.44-1.45-1.1c-0.05-0.18-3.76-14.39,4.76-25.31c0.07-0.12,0.16-0.23,0.26-0.33
				c2.36-2.93,5.63-5.6,10.11-7.69c0.75-0.35,1.64-0.02,1.99,0.73c0.35,0.75,0.02,1.64-0.73,1.99c-2.88,1.34-5.2,2.94-7.06,4.7
				c2.15,0.31,4.96,1.12,7.4,3.18c3.03,2.55,4.73,6.36,5.07,11.32c0.06,0.83-0.57,1.54-1.39,1.6c-0.8,0.07-1.54-0.57-1.6-1.39
				c-0.28-4.11-1.62-7.21-3.99-9.22c-2.88-2.45-6.58-2.68-8.02-2.66c-7.2,9.55-4.08,21.63-3.9,22.29c0.22,0.8-0.26,1.62-1.05,1.84
				C3665.56,761.54,3665.42,761.56,3665.29,761.56z M3535.16,757.04c-6.91,0-12.35-1.93-12.71-2.06c-0.78-0.28-1.18-1.14-0.9-1.92
				c0.28-0.78,1.14-1.18,1.92-0.9c0.07,0.02,6.86,2.44,14.63,1.74c10.16-0.92,17.18-6.54,20.84-16.71c0.28-0.78,1.14-1.18,1.92-0.9
				c0.78,0.28,1.18,1.14,0.9,1.92c-2.79,7.74-7.45,13.18-13.84,16.18C3543.65,756.4,3539.16,757.04,3535.16,757.04z"/>
			<path class="st21" d="M3503.21,716.59c1.65,5.79,5.72,12.67,26.16,6.7c20.44-5.96,42.08-17.46,41.22-21.47
				c-0.86-4-16.77-6.55-33.58-2.16C3520.2,704.05,3501.56,710.8,3503.21,716.59L3503.21,716.59z"/>
			<path class="st21" d="M3407.95,755.94c1.65,5.17,5.68,11.32,25.63,6.15c19.95-5.17,41.05-15.27,40.18-18.84
				c-0.87-3.57-16.45-5.95-32.86-2.15C3424.49,744.89,3406.3,750.77,3407.95,755.94L3407.95,755.94z"/>
			<path class="st22" d="M3477.07,858.17c-0.12,0-0.24-0.02-0.37-0.05c-0.8-0.2-1.29-1.02-1.09-1.82l8.51-33.79
				c0.2-0.8,1.02-1.29,1.82-1.09c0.8,0.2,1.29,1.02,1.09,1.82l-8.51,33.79C3478.35,857.72,3477.74,858.17,3477.07,858.17z
				 M3454.73,825.33c-0.46,0-0.92-0.21-1.21-0.61c-0.49-0.67-0.35-1.61,0.32-2.1c8.07-5.94,18.93-20.85,19.04-21
				c0.49-0.67,1.43-0.82,2.09-0.33c0.67,0.49,0.82,1.42,0.33,2.09c-0.46,0.63-11.24,15.45-19.69,21.66
				C3455.35,825.23,3455.04,825.33,3454.73,825.33z M3572.5,807.68c-0.21,0-0.43-0.05-0.64-0.14l-35.47-16.73
				c-0.75-0.35-1.07-1.25-0.72-2c0.35-0.75,1.25-1.07,2-0.72l35.47,16.73c0.75,0.35,1.07,1.25,0.72,2
				C3573.6,807.36,3573.06,807.68,3572.5,807.68z M3559.71,767.44c-4.2,0-7.07-0.12-7.44-0.13c-0.83-0.04-1.47-0.73-1.44-1.56
				c0.04-0.83,0.72-1.46,1.56-1.43c0.3,0.01,29.84,1.2,42.58-4.34c0.76-0.33,1.64,0.02,1.97,0.78c0.33,0.76-0.02,1.64-0.78,1.97
				C3586.79,766.8,3569.58,767.44,3559.71,767.44z M3592.42,723.48c-0.68,0-1.3-0.47-1.46-1.17c-0.19-0.81,0.32-1.61,1.13-1.8
				l19.75-4.52c0.82-0.18,1.61,0.32,1.8,1.13c0.18,0.81-0.32,1.61-1.13,1.8l-19.75,4.52
				C3592.65,723.47,3592.54,723.48,3592.42,723.48z M3584.63,718.77c-0.28,0-0.57-0.08-0.83-0.25c-0.69-0.46-0.88-1.39-0.42-2.08
				l11.02-16.68c0.46-0.69,1.39-0.88,2.08-0.42c0.69,0.46,0.88,1.39,0.42,2.08l-11.02,16.68
				C3585.59,718.53,3585.12,718.77,3584.63,718.77z"/>
			<path class="st10" d="M3554.16,957.5c17-12.25,32.74-25.29,47.55-38.95l-47.28,107.17L3554.16,957.5L3554.16,957.5z"/>
			<path d="M3660.98,692.27c-0.69,0-1.32-0.48-1.47-1.19c-3.48-16.28-23.91-58.63-28.31-67.67l-11.06,9.2
				c-0.64,0.53-1.58,0.44-2.11-0.19c-0.53-0.64-0.44-1.58,0.19-2.11l12.5-10.39c0.02-0.02,0.04-0.03,0.06-0.05l32.64-27.14
				c0.64-0.53,1.58-0.44,2.11,0.19s0.44,1.58-0.19,2.11l-5.33,4.44c4.24,5.61,34.96,47.33,41.89,85.27c0.15,0.81-0.39,1.6-1.21,1.75
				c-0.8,0.15-1.6-0.39-1.75-1.21c-3.8-20.78-14.94-42.65-23.62-57.35c-8.08-13.68-15.59-23.84-17.63-26.54l-24.12,20.05
				c3.74,7.62,25.18,51.73,28.87,69.02c0.17,0.81-0.34,1.61-1.15,1.78C3661.19,692.26,3661.08,692.27,3660.98,692.27z
				 M3414.44,689.82c-29.46,0-60.01-60.85-61.32-63.5c-0.37-0.74-0.07-1.64,0.68-2.01c0.74-0.37,1.64-0.07,2.01,0.68
				c0.32,0.64,32.29,64.32,60.28,61.75c0.83-0.08,1.55,0.53,1.63,1.36c0.08,0.83-0.53,1.56-1.36,1.63
				C3415.73,689.79,3415.08,689.82,3414.44,689.82z M3445.2,669.43c-0.1,0-0.21-0.01-0.32-0.03c-17.37-3.75-33.94-16.82-47.93-37.8
				c-10.5-15.75-15.96-30.62-16.02-30.77c-0.28-0.78,0.12-1.64,0.9-1.92c0.78-0.28,1.64,0.12,1.92,0.9
				c0.21,0.58,21.53,57.98,61.76,66.66c0.81,0.17,1.32,0.97,1.15,1.78C3446.51,668.95,3445.89,669.43,3445.2,669.43z"/>
		</g>
	</g>
	<g id="right_bottom">
		<path class="st18" d="M3009.86,2741.53c0,0-197.63-446.03-218.72-534.92c-5.3-22.34-11.51-39.06-10.68-65.92
			c2.15-70.42,61.62-146.68,61.62-146.68s133.15-42.65,122.28,39.6c-15.43,116.67,238.74,549.61,238.74,549.61L3009.86,2741.53
			L3009.86,2741.53z"/>
		<path class="st18" d="M2947.58,2082.87c0,0,37.66-104.44,46.95-76.81c9.29,27.62-29.5,124.33-29.5,124.33L2947.58,2082.87
			L2947.58,2082.87z"/>
		<path class="st11" d="M3452.93,2273.65l-3.78,31.02l-322.26,231.9l-19.6-120.63c0,0,120.22-86.5,204.96-118.36
			C3396.99,2265.71,3452.93,2273.65,3452.93,2273.65L3452.93,2273.65z"/>
		<path class="st11" d="M3035.75,2621.81c0,0,292.18-279.94,462.9-342.48c97.12-35.58,127.1-12.91,203.51,69.73
			c158.44,171.35,121.52,723.66,121.52,723.66l-775.44-2.79l33.15-84.52l11.5-30.16l98.02-54.73L3035.75,2621.81L3035.75,2621.81z"
			/>
		<path d="M3204.18,2924.16c-0.11,0-0.21-0.01-0.32-0.03c-0.4-0.09-0.75-0.34-0.97-0.7l-13.86-23.14c-0.43-0.71-0.19-1.63,0.52-2.06
			c0.71-0.42,1.63-0.2,2.06,0.52l13.04,21.77l107.25-73.69c0.68-0.47,1.62-0.29,2.09,0.39c0.47,0.68,0.3,1.62-0.39,2.09
			l-108.57,74.59C3204.78,2924.07,3204.48,2924.16,3204.18,2924.16z M3035.75,2623.31c-0.4,0-0.8-0.16-1.09-0.47
			c-0.57-0.6-0.54-1.55,0.06-2.12c1.94-1.83,194.66-183.27,289.18-242.05c94.45-58.73,126.17-75.24,126.48-75.4
			c0.73-0.38,1.64-0.09,2.02,0.64c0.38,0.74,0.09,1.64-0.64,2.02c-0.31,0.16-31.97,16.63-126.27,75.28
			c-94.27,58.62-286.77,239.86-288.71,241.69C3036.49,2623.17,3036.12,2623.31,3035.75,2623.31z"/>
		<path class="st12" d="M3655.75,2131.79c0,0,65.2-36.13,80.02-73.51c23.28-26.15,34.91-57.93,23.94-100.61
			c23.17-26.65,18.01-52.72,5.1-78.64l-106.02,62.64L3655.75,2131.79L3655.75,2131.79z"/>
		<path class="st18" d="M3405.21,1861.88l-40.41,204.62l28.66,10.89c0,0-4.33,55.96-5.39,72.7c-1.05,16.74-0.09,52.45,34.99,48.79
			c35.08-3.66,47.72-10.49,47.72-10.49l-22.2,113.61c0,0,145.89,37.13,191.63-11.87l22.68-221.98c0,0,80.27-37.43,61.89-84.08
			c-18.38-46.66-64.51-9.93-64.51-9.93s41.2-104.98-58-124.57C3503.07,1829.99,3405.21,1861.88,3405.21,1861.88L3405.21,1861.88z"/>
		<path class="st12" d="M3395.85,1776.61c-20.02-4.91-57.63,43.12-6.27,76.24c0,0,16.4,45.72,62.29,28.61
			c0,0,29.47,47.27,81.73,26.51c0,0,30.22,54.85,71.11,14.15l29.71,108.23l19.48-2.16l11.23-60.7l89.62-43.89
			c0,0,34.26-86.56-12.07-101.46c0,0,2.97-80.92-80.04-48.28c0,0-29.61-82.62-85.55-45.15c0,0-38.56-43.94-78.82-5.68
			c0,0-43.53-25.46-57.42,11.67C3440.83,1734.69,3386.52,1733.29,3395.85,1776.61L3395.85,1776.61z"/>
		<path d="M3426.91,2140.62c-0.02,0-0.04,0-0.05,0c-0.83,0-1.5-0.67-1.5-1.5c0-0.83,0.67-1.5,1.5-1.5c0,0,0,0,0.01,0
			c0.41,0,21.93-0.07,33.04-7.12c0.7-0.44,1.63-0.24,2.07,0.46c0.44,0.7,0.24,1.63-0.46,2.07
			C3449.78,2140.49,3428.37,2140.62,3426.91,2140.62z"/>
		<path d="M3689.92,2023.53c-0.13,0-0.27-0.02-0.4-0.05c-0.8-0.22-1.27-1.05-1.04-1.85c4.21-15.16-3.67-25.62-6.44-28.71
			c-1.36,1.15-2.58,2.43-3.67,3.84c-7.85,10.25-5.57,23.91-5.54,24.04c0.14,0.82-0.4,1.59-1.22,1.74c-0.82,0.15-1.59-0.4-1.74-1.22
			c-0.11-0.61-2.53-15.11,6.12-26.39c5.5-7.18,14.19-11.34,25.82-12.38c0.82-0.07,1.55,0.54,1.63,1.36
			c0.07,0.83-0.54,1.55-1.36,1.63c-7.12,0.63-13.02,2.5-17.63,5.57c3.28,3.73,11.44,15.08,6.93,31.31
			C3691.18,2023.09,3690.57,2023.53,3689.92,2023.53z"/>
		<path d="M3451.35,1996.18c-2.55,0-5.01-0.26-7.32-0.8c-22.87-5.38-27.58-23.39-27.77-24.16c-0.2-0.8,0.29-1.62,1.09-1.82
			c0.81-0.2,1.62,0.29,1.82,1.09c0.02,0.06,1.13,4.33,4.82,9.14c4.94,6.44,11.91,10.75,20.73,12.83c11.34,2.66,27-2.12,35.64-10.89
			c0.58-0.59,1.53-0.6,2.12-0.02c0.59,0.58,0.6,1.53,0.02,2.12C3474.94,1991.35,3462.38,1996.18,3451.35,1996.18z"/>
		<path class="st12" d="M3432.27,1918.14c-9.34-0.09-13.81,14.6-8.01,19.1c3.89,3.03,60.61,11.55,77.55,14.92
			c0,0,3.18-17.04-25.82-24.84C3449.12,1920.1,3438.38,1918.2,3432.27,1918.14L3432.27,1918.14z"/>
		<polygon class="st10" points="3471.36,2189.17 3516.31,2173.13 3455.59,2274.17 3471.36,2189.17 		"/>
		<path d="M2981.08,2680.68c-0.54,0-1.05-0.29-1.32-0.79c-0.39-0.73-0.12-1.64,0.61-2.03l65.67-35.13c0.73-0.39,1.64-0.12,2.03,0.61
			c0.39,0.73,0.12,1.64-0.61,2.03l-65.67,35.13C2981.57,2680.62,2981.32,2680.68,2981.08,2680.68z"/>
		<g>
			<g>
				<path class="st12" d="M3285.8,2716.95c1.99-16.88,16.33-29.91,33.57-29.74c17,0.18,30.93,13.14,32.88,29.74h-16.97
					c-1.77-7.31-8.28-12.78-16.08-12.86c-7.92-0.08-14.62,5.42-16.43,12.86H3285.8L3285.8,2716.95z"/>
			</g>
			<g>
				<path class="st12" d="M3585.85,2521.29c10.44-13.42,29.45-17.15,44.11-8.08c14.46,8.95,19.67,27.25,12.75,42.46l-14.52-8.78
					c2.27-7.18-0.47-15.22-7.11-19.33c-6.74-4.17-15.32-2.93-20.71,2.51L3585.85,2521.29L3585.85,2521.29z"/>
			</g>
			<g>
				<path class="st12" d="M3531.75,2886.38c2.13-16.87,16.58-29.78,33.82-29.46c17,0.32,30.82,13.4,32.63,30.01l-16.97-0.14
					c-1.71-7.33-8.17-12.85-15.97-13c-7.92-0.15-14.67,5.3-16.53,12.73L3531.75,2886.38L3531.75,2886.38z"/>
			</g>
			<g>
				<path class="st12" d="M3457.44,2958.15c12.79,11.2,15.4,30.41,5.49,44.51c-9.78,13.91-28.35,18.04-43.13,10.25l9.61-13.99
					c7.03,2.69,15.22,0.42,19.71-5.96c4.56-6.48,3.82-15.12-1.29-20.82L3457.44,2958.15L3457.44,2958.15z"/>
			</g>
			<g>
				<path class="st12" d="M3509,2653.4c16.93,1.6,30.28,15.64,30.51,32.87c0.22,17-12.42,31.23-28.97,33.56l-0.39-16.97
					c7.27-1.94,12.59-8.57,12.49-16.38c-0.1-7.92-5.75-14.49-13.24-16.12L3509,2653.4L3509,2653.4z"/>
			</g>
			<g>
				<path class="st12" d="M3761.79,2614.71c-2.86,16.76-17.87,29.02-35.08,27.95c-16.97-1.06-30.2-14.73-31.29-31.41l16.95,0.88
					c1.39,7.4,7.6,13.2,15.39,13.68c7.91,0.49,14.89-4.65,17.07-11.99L3761.79,2614.71L3761.79,2614.71z"/>
			</g>
			<g>
				<path class="st12" d="M3710.77,2801.44c-14.71,8.52-33.74,4.82-43.92-9.09c-10.04-13.73-7.99-32.64,4.14-44.14l10.16,13.6
					c-4.8,5.8-5.28,14.28-0.68,20.58c4.68,6.4,13.09,8.47,20.14,5.46L3710.77,2801.44L3710.77,2801.44z"/>
			</g>
			<g>
				<path class="st12" d="M3198.26,2833.8c-1.41-16.94,10.07-32.56,27-35.81c16.7-3.21,32.92,6.73,38.13,22.61l-16.63,3.37
					c-3.19-6.82-10.65-10.88-18.32-9.41c-7.78,1.49-13.26,8.22-13.54,15.87L3198.26,2833.8L3198.26,2833.8z"/>
			</g>
			<g>
				<path class="st12" d="M3224.07,2564.6c16.86,2.18,29.73,16.67,29.36,33.9c-0.37,17-13.49,30.78-30.1,32.54l0.19-16.97
					c7.33-1.69,12.88-8.13,13.04-15.93c0.17-7.92-5.25-14.68-12.68-16.57L3224.07,2564.6L3224.07,2564.6z"/>
			</g>
			<g>
				<path class="st12" d="M3098.06,2635c14.81-8.34,33.79-4.43,43.81,9.6c9.88,13.84,7.61,32.73-4.66,44.09l-10-13.71
					c4.87-5.74,5.45-14.22,0.92-20.57c-4.6-6.45-12.99-8.62-20.07-5.69L3098.06,2635L3098.06,2635z"/>
			</g>
			<g>
				<path class="st12" d="M3412.96,2348.9c8.1,14.95,3.88,33.86-10.31,43.65c-14,9.65-32.85,7.08-44.01-5.37l13.87-9.78
					c5.66,4.96,14.13,5.68,20.55,1.25c6.52-4.5,8.83-12.85,6.02-19.98L3412.96,2348.9L3412.96,2348.9z"/>
			</g>
			<g>
				<path class="st12" d="M3323.01,2347.59c-8.64,12.29-25.84,16.17-39.94,8.48c-13.9-7.58-19.96-23.78-14.68-37.57l13.95,7.43
					c-1.58,6.48,1.5,13.59,7.88,17.06c6.48,3.53,14.27,2.18,18.84-2.84L3323.01,2347.59L3323.01,2347.59z"/>
			</g>
			<g>
				<path class="st12" d="M3163.48,2388.57c16.43,4.39,27.27,20.45,24.62,37.49c-2.61,16.8-17.44,28.73-34.14,28.28l2.43-16.8
					c7.49-0.7,13.84-6.36,15.03-14.07c1.22-7.83-3.27-15.25-10.38-18.1L3163.48,2388.57L3163.48,2388.57z"/>
			</g>
			<g>
				<path class="st12" d="M3657.91,2411.61c-11.77-12.27-12.71-31.62-1.62-44.82c10.94-13.01,29.81-15.52,43.86-6.48l-10.79,13.1
					c-6.77-3.28-15.13-1.74-20.15,4.24c-5.1,6.06-5.11,14.73-0.51,20.86L3657.91,2411.61L3657.91,2411.61z"/>
			</g>
			<g>
				<path class="st12" d="M3404.15,2589.03c-11.83-12.21-12.86-31.56-1.84-44.81c10.88-13.07,29.73-15.67,43.82-6.69l-10.72,13.16
					c-6.79-3.25-15.14-1.66-20.13,4.34c-5.07,6.09-5.04,14.76-0.41,20.86L3404.15,2589.03L3404.15,2589.03z"/>
			</g>
			<g>
				<path class="st12" d="M3488.67,2388.57c14.81-8.34,33.79-4.43,43.81,9.6c9.88,13.84,7.61,32.73-4.65,44.09l-10-13.71
					c4.87-5.74,5.45-14.22,0.92-20.57c-4.6-6.45-12.99-8.62-20.07-5.69L3488.67,2388.57L3488.67,2388.57z"/>
			</g>
			<g>
				<path class="st12" d="M3234.52,2478.09c4.94-16.27,21.36-26.56,38.29-23.34c16.71,3.17,28.12,18.4,27.11,35.07l-16.71-3
					c-0.45-7.51-5.89-14.04-13.56-15.5c-7.78-1.48-15.35,2.75-18.44,9.76L3234.52,2478.09L3234.52,2478.09z"/>
			</g>
			<g>
				<path class="st12" d="M3279.32,2949.99c16.87-2.1,32.95,8.73,36.89,25.51c3.89,16.55-5.39,33.17-21.04,39.02l-4.05-16.48
					c6.68-3.46,10.44-11.09,8.66-18.68c-1.81-7.71-8.75-12.91-16.41-12.89L3279.32,2949.99L3279.32,2949.99z"/>
			</g>
			<g>
				<path class="st12" d="M3383.48,2807.68c14.81-8.34,33.79-4.43,43.81,9.61c9.88,13.84,7.61,32.73-4.66,44.09l-10-13.71
					c4.87-5.74,5.45-14.22,0.92-20.57c-4.6-6.45-12.99-8.62-20.07-5.69L3383.48,2807.68L3383.48,2807.68z"/>
			</g>
			<g>
				<path class="st12" d="M3166.09,3004.32c-5.56,16.07-22.36,25.72-39.16,21.85c-16.57-3.81-27.4-19.46-25.75-36.09l16.58,3.64
					c0.16,7.52,5.35,14.26,12.95,16.01c7.72,1.78,15.44-2.16,18.8-9.05L3166.09,3004.32L3166.09,3004.32z"/>
			</g>
			<g>
				<path class="st12" d="M3749.08,2951.84c-15.57-6.82-23.86-24.34-18.67-40.78c5.12-16.22,21.58-25.76,38.03-22.79l-4.95,16.24
					c-7.51-0.44-14.64,4.19-16.99,11.64c-2.39,7.55,0.92,15.57,7.52,19.46L3749.08,2951.84L3749.08,2951.84z"/>
			</g>
			<g>
				<path class="st12" d="M3613.6,3013.74c7.73-15.14,25.71-22.38,41.81-16.22c15.88,6.07,24.44,23.07,20.5,39.31l-15.92-5.9
					c0.88-7.47-3.32-14.86-10.61-17.65c-7.4-2.83-15.59,0-19.87,6.36L3613.6,3013.74L3613.6,3013.74z"/>
			</g>
		</g>
		<path class="st18" d="M2666.26,2061.5c0,0,74.8,104.21,167.21,75.11c92.41-29.1,131.09-56.84,128.99-79.86
			c-2.11-23.02-126.39-67.74-126.39-67.74s69.98-0.7,75.7-27.85c4.13-19.59-40.98-7.2-67.75-9.16c-19.73-1.44-60.25-4.92-60.25-4.92
			L2666.26,2061.5L2666.26,2061.5z"/>
		<path d="M2805.99,2137.63c-0.09,0-0.17-0.01-0.26-0.02c-37.05-6.46-51.62-32.49-52.22-33.6c-0.4-0.73-0.13-1.64,0.6-2.03
			c0.73-0.4,1.64-0.13,2.04,0.6c0.14,0.26,14.54,25.88,50.1,32.08c0.82,0.14,1.36,0.92,1.22,1.74
			C2807.34,2137.12,2806.71,2137.63,2805.99,2137.63z M2858.54,2121.1c-25.13,0-44.33-8.38-56.6-16.01
			c-15.36-9.55-23.25-19.74-23.58-20.16c-0.5-0.66-0.38-1.6,0.28-2.1c0.66-0.5,1.6-0.38,2.1,0.28c0.31,0.4,31.71,40.42,89.55,34.38
			c0.83-0.08,1.56,0.51,1.65,1.34c0.09,0.82-0.51,1.56-1.34,1.65C2866.45,2120.9,2862.42,2121.1,2858.54,2121.1z M2895.62,2093.26
			c-21.24,0-39.3-5.73-52.29-11.64c-20.75-9.44-33.02-21.05-33.53-21.54c-0.6-0.57-0.62-1.52-0.05-2.12
			c0.57-0.6,1.52-0.62,2.12-0.05c0.12,0.12,12.48,11.79,32.8,21.02c18.69,8.49,48.16,16.58,82.38,6.95c0.8-0.22,1.63,0.24,1.85,1.04
			c0.22,0.8-0.24,1.63-1.04,1.85C2916.54,2091.96,2905.72,2093.26,2895.62,2093.26z"/>
		<path d="M2912.79,2063.52c-7.24,0-15.35-0.67-24.39-2.29c-24.8-4.43-40.68-13.84-47.19-27.95c-8.88-19.24,2.94-39.87,3.45-40.74
			c0.42-0.72,1.33-0.95,2.05-0.54c0.71,0.42,0.96,1.34,0.54,2.05c-0.12,0.2-11.54,20.18-3.31,37.99
			c6.09,13.17,21.23,21.99,44.99,26.24c26.03,4.65,43.96,1.04,54.42-2.8c11.3-4.16,16.54-9.48,16.6-9.53
			c0.58-0.59,1.52-0.61,2.12-0.04c0.59,0.57,0.61,1.52,0.04,2.12C2961.38,2048.79,2946.74,2063.52,2912.79,2063.52z"/>
		<path d="M2846.2,2040.22c-0.29,0-0.58-0.08-0.83-0.25c-0.69-0.46-0.87-1.39-0.41-2.08l33.75-50.3c0.46-0.69,1.39-0.87,2.08-0.41
			c0.69,0.46,0.87,1.39,0.41,2.08l-33.75,50.3C2847.15,2039.99,2846.68,2040.22,2846.2,2040.22z"/>
		<path d="M2876.07,2056.63c-0.26,0-0.52-0.07-0.76-0.21c-0.71-0.42-0.95-1.34-0.52-2.06l42.15-71.06c0.42-0.71,1.34-0.95,2.06-0.52
			c0.71,0.42,0.95,1.34,0.52,2.06l-42.15,71.06C2877.08,2056.36,2876.58,2056.63,2876.07,2056.63z"/>
		<path d="M2913.77,2062.85c-0.25,0-0.51-0.06-0.74-0.2c-0.72-0.41-0.97-1.33-0.56-2.05l37.24-65.43c0.41-0.72,1.33-0.97,2.05-0.56
			c0.72,0.41,0.97,1.33,0.56,2.05l-37.24,65.43C2914.8,2062.58,2914.29,2062.85,2913.77,2062.85z"/>
		<path d="M2782.83,2142.33c-0.71,0-1.34-0.5-1.47-1.22c-0.15-0.81,0.38-1.6,1.2-1.75c0.26-0.05,26.34-5,54.64-12.11
			c24.11-6.06,42.66-11.85,55.11-17.2c40.17-17.28,69.84-67.03,70.14-67.54c0.42-0.71,1.34-0.95,2.05-0.53
			c0.71,0.42,0.95,1.34,0.53,2.05c-0.07,0.13-7.65,12.9-20.16,27.66c-11.58,13.65-29.89,31.87-51.38,41.11
			c-12.6,5.42-31.3,11.26-55.57,17.36c-28.39,7.13-54.55,12.1-54.81,12.15C2783.02,2142.32,2782.92,2142.33,2782.83,2142.33z"/>
	</g>
</g>
</svg>
